<svg xmlns="http://www.w3.org/2000/svg" xmlns:xlink="http://www.w3.org/1999/xlink" width="1450" zoomAndPan="magnify" viewBox="0 0 1012.5 262.499992" height="350" preserveAspectRatio="xMidYMid meet" version="1.0"><defs><clipPath id="2187b1bb84"><path d="M 0.714844 0 L 1011.289062 0 L 1011.289062 262 L 0.714844 262 Z M 0.714844 0 " clip-rule="nonzero"/></clipPath></defs><g clip-path="url(#2187b1bb84)"><path fill="#8ce8d2" d="M 1064.328125 -101.789062 C 1037.292969 -62.933594 1007.148438 -26.566406 972.652344 5.449219 C 949.65625 26.585938 925.105469 44.921875 898.378906 60.464844 C 873.515625 75.074219 846.792969 85.953125 819.753906 95.589844 C 788.054688 107.089844 755.113281 113.304688 721.863281 117.96875 C 701.972656 120.765625 681.773438 123.253906 661.574219 124.804688 C 641.0625 126.671875 620.242188 127.914062 599.730469 129.15625 C 584.191406 130.089844 568.964844 130.710938 553.425781 131.332031 C 528.566406 132.578125 503.394531 133.507812 478.53125 134.441406 C 454.601562 135.375 430.363281 136.308594 406.433594 137.550781 C 381.261719 139.105469 355.777344 140.347656 330.605469 142.523438 C 316 143.765625 301.394531 145.011719 286.789062 146.566406 C 265.65625 149.050781 244.835938 152.78125 224.011719 156.511719 C 191.382812 162.105469 159.371094 170.1875 128.296875 181.6875 C 101.570312 191.632812 76.085938 203.757812 51.847656 218.988281 C 19.839844 239.503906 -9.683594 264.058594 -36.410156 292.03125 C -54.125 310.371094 -69.664062 330.574219 -83.957031 352.023438 C -87.375 357.304688 -90.171875 363.210938 -94.214844 367.5625 C -99.808594 373.78125 -104.46875 380.308594 -108.820312 387.144531 C -115.65625 398.023438 -122.492188 408.902344 -129.019531 419.78125 C -129.640625 421.027344 -130.574219 421.648438 -131.816406 422.269531 C -137.410156 424.757812 -143.316406 426 -148.597656 429.109375 C -149.839844 429.730469 -152.328125 427.863281 -152.015625 427.242188 C -145.800781 415.121094 -139.585938 403 -133.058594 390.566406 C -128.398438 381.550781 -125.289062 371.914062 -119.695312 363.523438 C -106.332031 343.320312 -90.796875 325.292969 -74.636719 307.574219 C -61.582031 292.964844 -47.597656 279.597656 -33.304688 266.542969 C -9.683594 245.097656 15.175781 225.824219 42.214844 209.351562 C 69.5625 192.566406 98.460938 179.203125 128.296875 167.699219 C 171.492188 151.226562 215.933594 142.523438 261.304688 136.617188 C 274.980469 134.753906 288.964844 133.199219 302.636719 131.957031 C 317.554688 130.710938 332.160156 129.46875 347.078125 128.535156 C 363.238281 127.605469 379.085938 126.980469 395.246094 126.359375 C 413.890625 125.738281 432.226562 125.117188 450.875 124.804688 C 469.519531 124.496094 488.164062 124.183594 506.8125 123.5625 C 527.011719 122.941406 547.210938 122.320312 567.410156 122.007812 C 579.84375 121.699219 592.273438 121.699219 604.703125 121.078125 C 622.417969 120.144531 640.128906 118.902344 657.84375 117.65625 C 667.789062 117.035156 677.734375 116.414062 687.679688 115.171875 C 704.460938 113.304688 721.550781 111.128906 738.332031 108.644531 C 755.425781 106.15625 772.207031 103.046875 788.988281 99.007812 C 826.902344 89.371094 863.261719 75.382812 897.445312 56.113281 C 926.96875 39.328125 954.316406 18.8125 979.179688 -5.121094 C 998.136719 -23.148438 1016.160156 -42.417969 1032.628906 -63.246094 C 1047.238281 -81.582031 1061.222656 -100.234375 1074.273438 -119.816406 C 1089.191406 -142.195312 1103.175781 -165.195312 1115.917969 -189.441406 C 1127.414062 -211.820312 1138.292969 -234.199219 1148.234375 -257.511719 C 1148.546875 -257.511719 1148.859375 -257.511719 1149.167969 -257.511719 C 1144.816406 -245.390625 1139.535156 -233.269531 1134.25 -221.769531 C 1113.742188 -179.183594 1090.742188 -139.398438 1064.328125 -101.789062 Z M 1064.328125 -101.789062 " fill-opacity="1" fill-rule="nonzero"/></g></svg>