<svg id="Calque_1" data-name="Calque 1" xmlns="http://www.w3.org/2000/svg" viewBox="0 0 1190 362.39"><defs><style>.cls-1{fill:#5c5c5c;}.cls-2{fill:#c37259;}</style></defs><path class="cls-1" d="M7.66,80.52C7.66,39.63,39.19,6,78.38,6h33.43c39.19,0,70.5,33.86,70.5,74.75,0,41.1-31.31,74.12-70.5,74.12H78.38c-39.19,0-70.72-33.45-70.72-74.34m147.59,0c0-25.13-19.8-45.78-43.44-45.78H78.38c-23.86,0-43.46,20.65-43.46,45.78,0,24.92,19.6,45.59,43.46,45.59h33.43c23.85,0,43.44-20.67,43.44-45.59"/><path class="cls-2" d="M14.3,183.41,175.44,183a7,7,0,0,1,6.81,7.26V290.1c0,6.17-4,6.58-8.3,6.58H162.54c-7.68,0-8.31-2.53-8.31-10.2V211.32H112.39v71.89c0,4.47-2.34,6.82-6.82,6.82H91.35c-4.47,0-6.81-2.35-6.81-6.82V211.32H16c-4.25,0-8.52,0-8.52-7V190a6.69,6.69,0,0,1,6.82-6.61"/><path class="cls-1" d="M78.85,84.25H63.2a6.5,6.5,0,0,1-6.4-6.55v-16a6.49,6.49,0,0,1,6.4-6.55H78.85a6.49,6.49,0,0,1,6.4,6.55v16a6.5,6.5,0,0,1-6.4,6.55"/><path class="cls-1" d="M17.63,121.83H11.18a2.65,2.65,0,0,1-2.65-2.65v-6.49A2.65,2.65,0,0,1,11.18,110h6.45a2.65,2.65,0,0,1,2.64,2.65v6.49a2.65,2.65,0,0,1-2.64,2.65"/><path class="cls-1" d="M126.89,84.25H111.33A6.48,6.48,0,0,1,105,77.7v-16a6.47,6.47,0,0,1,6.37-6.55h15.56a6.48,6.48,0,0,1,6.37,6.55v16a6.48,6.48,0,0,1-6.37,6.55"/><path class="cls-1" d="M796.72,130.24a1.4,1.4,0,0,1-1,.41H755.52a.53.53,0,0,0-.6.59v22.11a.52.52,0,0,0,.6.59h27.07a1.42,1.42,0,0,1,1.42,1.42v9a1.42,1.42,0,0,1-1.42,1.42H755.52a.53.53,0,0,0-.6.59v33.81a1.36,1.36,0,0,1-.41,1,1.34,1.34,0,0,1-1,.41H742.63a1.32,1.32,0,0,1-1-.41,1.37,1.37,0,0,1-.42-1V120.25a1.42,1.42,0,0,1,1.42-1.42h53.08a1.4,1.4,0,0,1,1.42,1.42v9a1.4,1.4,0,0,1-.41,1"/><path class="cls-1" d="M847.86,200.4,842.25,182c-.16-.31-.35-.47-.59-.47l-29.51,5.74c-.23,0-.43.16-.59.47l-3.9,12.65a1.47,1.47,0,0,1-1.53,1.18H794.3a1.31,1.31,0,0,1-1.06-.41,1.28,1.28,0,0,1-.12-1.24L818.78,120a1.47,1.47,0,0,1,1.53-1.18h14.78a1.48,1.48,0,0,1,1.54,1.18l25.77,79.92a1.29,1.29,0,0,1,.12.59c0,.71-.44,1.06-1.3,1.06H849.4a1.48,1.48,0,0,1-1.54-1.18m-31.77-24.85L838,170.78c.47,0,.63-.23.47-.71L828,136.21q-.12-.48-.36-.48c-.16,0-.27.16-.35.48l-11.67,38.63c-.08.48.08.71.47.71"/><path class="cls-1" d="M1170.89,200.4,1165.28,182c-.16-.31-.35-.47-.59-.47l-29.51,5.74c-.23,0-.43.16-.59.47l-3.9,12.65a1.48,1.48,0,0,1-1.54,1.18h-11.82a1.3,1.3,0,0,1-1.06-.41,1.28,1.28,0,0,1-.12-1.24L1141.8,120a1.48,1.48,0,0,1,1.54-1.18h14.78a1.49,1.49,0,0,1,1.54,1.18l25.77,79.92a1.44,1.44,0,0,1,.11.59c0,.71-.43,1.06-1.3,1.06h-11.82a1.47,1.47,0,0,1-1.53-1.18m-31.77-24.85,21.91-4.77c.47,0,.62-.23.47-.71L1151,136.21c-.08-.32-.19-.48-.35-.48s-.28.16-.35.48l-11.67,38.63c-.08.48.07.71.47.71"/><path class="cls-1" d="M919.28,159.14q12,5.67,12.05,19.51,0,11.23-7.5,17.08t-19.57,5.85H874.47a1.37,1.37,0,0,1-1-.41,1.4,1.4,0,0,1-.41-1V120.25a1.4,1.4,0,0,1,.41-1,1.41,1.41,0,0,1,1-.41h28.85q12.88,0,19.86,5.55t7,16.79q0,12.42-10.87,17.26c-.48.24-.48.47,0,.71m-32.52-27.9-.32,28.14a.52.52,0,0,0,.59.59l16.48-4.17a22.45,22.45,0,0,0,9.68-5.11,10.29,10.29,0,0,0,3.6-8.34,10.78,10.78,0,0,0-3.6-8.57q-3.62-3.14-9.87-3.13h-16a.53.53,0,0,0-.6.59M914,186.33a11.56,11.56,0,0,0,3.61-9,12.42,12.42,0,0,0-3.66-9c-2.44-2.52-5.55-1.53-9.74-.8L887,171.8a.52.52,0,0,0-.59.59l.32,16.66a.52.52,0,0,0,.6.59h16.9q6.15,0,9.75-3.31"/><path class="cls-1" d="M991.39,200.52l-14.15-32.27a.75.75,0,0,0-.7-.47l-15.65,4.13a.52.52,0,0,0-.59.59v27.66a1.4,1.4,0,0,1-.41,1,1.41,1.41,0,0,1-1,.41H948a1.4,1.4,0,0,1-1-.41,1.37,1.37,0,0,1-.42-1V120.25a1.37,1.37,0,0,1,.42-1,1.4,1.4,0,0,1,1-.41h32.51a26.32,26.32,0,0,1,12.76,3,21.38,21.38,0,0,1,8.63,8.52A25.33,25.33,0,0,1,1005,143a22.83,22.83,0,0,1-4.19,13.88,21.71,21.71,0,0,1-11.64,8,.38.38,0,0,0-.36.23.51.51,0,0,0,0,.48l16.67,34.4a1.87,1.87,0,0,1,.23.71c0,.63-.43.94-1.29.94H993.05a1.67,1.67,0,0,1-1.66-1.06M960.3,131.24v27.83a.52.52,0,0,0,.59.59l17.73-3.61c5.25-1,6.84-1.82,9.17-4.06a11.86,11.86,0,0,0,3.48-8.93,12.05,12.05,0,0,0-3.48-9,12.52,12.52,0,0,0-9.17-3.43H960.89a.52.52,0,0,0-.59.59"/><path class="cls-1" d="M1021.11,201.17a1.36,1.36,0,0,1-.41-1V120.25a1.36,1.36,0,0,1,.41-1,1.39,1.39,0,0,1,1-.41H1033a1.41,1.41,0,0,1,1,.41,1.4,1.4,0,0,1,.41,1v79.91a1.4,1.4,0,0,1-.41,1,1.37,1.37,0,0,1-1,.41h-10.88a1.35,1.35,0,0,1-1-.41"/><path class="cls-1" d="M1063.73,199a25.09,25.09,0,0,1-10.41-9.75,28.29,28.29,0,0,1-3.66-14.54V145.54a28.26,28.26,0,0,1,3.66-14.53,24.79,24.79,0,0,1,10.41-9.7,33.88,33.88,0,0,1,15.6-3.43,34.8,34.8,0,0,1,15.49,3.31,24.48,24.48,0,0,1,10.4,9.34,26.36,26.36,0,0,1,3.67,13.95,1.4,1.4,0,0,1-.41,1,1.43,1.43,0,0,1-1,.41l-10.88.59c-.94,0-1.42-.43-1.42-1.3a15.09,15.09,0,0,0-4.31-11.23q-4.32-4.26-11.53-4.26T1067.75,134a15,15,0,0,0-4.38,11.23v30.15a14.8,14.8,0,0,0,4.38,11.11q4.37,4.26,11.58,4.26t11.53-4.2q4.31-4.2,4.31-11.17c0-.87.48-1.3,1.42-1.3l10.88.47a1.52,1.52,0,0,1,1,.36,1.06,1.06,0,0,1,.41.82,26.9,26.9,0,0,1-3.67,14.13,24.36,24.36,0,0,1-10.4,9.4,34.66,34.66,0,0,1-15.49,3.31,33.4,33.4,0,0,1-15.6-3.49"/><path class="cls-2" d="M281.86,224.63c-34.12,0-62.19-25.13-62.19-56.36V141.63c0-31.23,28.26-56.18,62.38-56.18,34.29,0,61.84,25,61.84,56.18v26.64c0,31.23-27.91,56.36-62,56.36m0-117.62c-21,0-38.2,15.78-38.2,34.62v26.64c0,19,17.24,34.63,38.2,34.63,20.79,0,38-15.62,38-34.63V141.63c0-19-17.25-34.62-38-34.62"/><path class="cls-2" d="M441.2,90.49A36.31,36.31,0,0,1,455.86,105a43.57,43.57,0,0,1,5.22,21.55c0,8-1.54,13.48-5.08,19.64s-9.09,10.66-15.29,14.52a99.89,99.89,0,0,1-22.52,10.09l-31.48,10.48a.86.86,0,0,0-1,1v38.72a2.36,2.36,0,0,1-2.36,2.36h-18.1a2.29,2.29,0,0,1-1.68-.69,2.26,2.26,0,0,1-.68-1.67V87.74a2.34,2.34,0,0,1,2.36-2.36h54.1a45.21,45.21,0,0,1,21.83,5.11m-9.05,49c4.07-3.94,6.1-6,6.1-12.43s-2-11.87-6.1-15.94-9.44-6.1-16.13-6.1H386.71a.87.87,0,0,0-1,1v52.63a.86.86,0,0,0,1,1L416,150c7.2-2.14,12.07-6.5,16.13-10.43"/><path class="cls-2" d="M503.57,219.16a41.65,41.65,0,0,1-17.42-16.23,47,47,0,0,1-6.19-24.3V87.94a2.36,2.36,0,0,1,2.36-2.36h18.1a2.36,2.36,0,0,1,2.36,2.36V179q0,11.63,7.28,18.89t19.28,7.28q12,0,19.27-7.28T555.9,179V87.94a2.26,2.26,0,0,1,.68-1.67,2.29,2.29,0,0,1,1.68-.69h18.1a2.36,2.36,0,0,1,2.36,2.36v90.69a47.66,47.66,0,0,1-6.1,24.3,41,41,0,0,1-17.31,16.23q-11.22,5.7-26,5.7-14.57,0-25.77-5.7"/><path class="cls-2" d="M624,219.94q-11.4-4.91-17.61-13.77a35.43,35.43,0,0,1-6.19-20.85V180.4a2.36,2.36,0,0,1,2.36-2.36H620a2.36,2.36,0,0,1,2.36,2.36v3.74q0,9,8.07,15.05t22,6q12,0,18.1-5.11a16.46,16.46,0,0,0,6.1-13.18,13.71,13.71,0,0,0-3.35-9.35,31.11,31.11,0,0,0-9.54-7q-6.19-3.15-18.59-7.87a194.89,194.89,0,0,1-22.62-9.64,42.12,42.12,0,0,1-14.46-12.3q-5.8-7.77-5.81-19.38,0-17.31,12.59-27.35t33.65-10q14.75,0,26.06,5.12a41.58,41.58,0,0,1,17.61,14.26,36.45,36.45,0,0,1,6.29,21.15v3.34a2.36,2.36,0,0,1-2.36,2.37h-17.7a2.34,2.34,0,0,1-2.36-2.37v-2.16q0-9.24-7.58-15.64t-20.95-6.39q-10.82,0-16.82,4.52t-6,12.79a14.45,14.45,0,0,0,3.15,9.64,28.14,28.14,0,0,0,9.44,6.79q6.3,3,19.48,7.77a221,221,0,0,1,22.33,9.64,42.92,42.92,0,0,1,14.36,12.1q6,7.75,6,19.38,0,17.7-13.09,28.12t-35.7,10.43q-15.35,0-26.76-4.92"/><path class="cls-1" d="M239.75,292.37a8.7,8.7,0,0,1-3.48-7.3,10.5,10.5,0,0,1,.07-1.44l.24-2.07q.13-.63.69-.63h1.88a.59.59,0,0,1,.47.19.47.47,0,0,1,.1.44l-.25,1.88a6.09,6.09,0,0,0-.06,1.07,6.52,6.52,0,0,0,2.78,5.51c1.86,1.38,4.46,2.06,7.8,2.06q5.44,0,8.46-2.47a8.26,8.26,0,0,0,3-6.73A6.28,6.28,0,0,0,259.1,278a37,37,0,0,0-8.17-4.73,66.26,66.26,0,0,1-6.26-3.16,11.65,11.65,0,0,1-3.45-3.1,7.59,7.59,0,0,1-1.31-4.58,13.89,13.89,0,0,1,.06-1.5,11,11,0,0,1,4.41-7.92,16.25,16.25,0,0,1,9.87-2.79q6.13,0,9.49,2.66a8.77,8.77,0,0,1,3.35,7.24c0,.33,0,.87-.12,1.63l-.13,1.44a.86.86,0,0,1-.25.43.58.58,0,0,1-.44.19h-2a.56.56,0,0,1-.47-.19.45.45,0,0,1-.1-.43l.19-1.26a7.66,7.66,0,0,0,.06-1.12,6.71,6.71,0,0,0-2.63-5.58c-1.75-1.38-4.26-2.07-7.51-2.07a12.26,12.26,0,0,0-7.36,2,7.78,7.78,0,0,0-3.17,5.67,7.66,7.66,0,0,0-.06,1.12,5.48,5.48,0,0,0,1.07,3.45,9.38,9.38,0,0,0,3,2.44q2,1.07,5.89,2.82a32.23,32.23,0,0,1,8.8,5.17,8.55,8.55,0,0,1,2.85,6.61,11.92,11.92,0,0,1-1.85,6.57,12.13,12.13,0,0,1-5.29,4.48,19.13,19.13,0,0,1-8.14,1.6Q243.22,295,239.75,292.37Z"/><path class="cls-1" d="M289,290.74a10.26,10.26,0,0,0,3.64-3.73c.25-.38.52-.48.81-.31l1.5.81c.34.25.4.52.19.82a13.27,13.27,0,0,1-4.82,4.88,13.44,13.44,0,0,1-7,1.82,11,11,0,0,1-7-2.13,9,9,0,0,1-3.32-5.82,13.77,13.77,0,0,1-.25-2.83,49.71,49.71,0,0,1,.44-5.57c.25-2,.45-3.59.62-4.64a15.15,15.15,0,0,1,.75-2.88,13.56,13.56,0,0,1,4.8-6.32,12.62,12.62,0,0,1,7.61-2.38c3.5,0,6.13,1,7.86,2.88s2.6,4.57,2.6,8q0,1.69-.5,5.95-.14.63-.69.63h-19.8a.29.29,0,0,0-.31.25,33.2,33.2,0,0,0-.38,4.32,7.37,7.37,0,0,0,2.16,5.58,8.32,8.32,0,0,0,6,2.06A9.66,9.66,0,0,0,289,290.74Zm-12.4-13.94c0,.17,0,.25.19.25h17a.22.22,0,0,0,.25-.25,30.65,30.65,0,0,0,.25-3.88,7.49,7.49,0,0,0-2-5.42,7.38,7.38,0,0,0-5.55-2.1,9.38,9.38,0,0,0-5.73,1.79,9.19,9.19,0,0,0-3.35,4.73A28.31,28.31,0,0,0,276.55,276.8Z"/><path class="cls-1" d="M341.57,250.68h2q.57,0,.57.63l-5.26,42.59q-.13.63-.69.63h-2c-.42,0-.58-.21-.5-.63l.37-3.07c0-.29-.1-.33-.31-.12A10.76,10.76,0,0,1,327,295a9.88,9.88,0,0,1-6.74-2.26,9.54,9.54,0,0,1-3.16-6.07,12.26,12.26,0,0,1-.13-2.13q0-1.81.44-5.76c.25-1.93.49-3.48.72-4.67a22.54,22.54,0,0,1,.85-3.23,13,13,0,0,1,4.6-6.17,12.35,12.35,0,0,1,7.42-2.28,9.15,9.15,0,0,1,4.61,1.12,7.64,7.64,0,0,1,3,3.2c0,.12.1.18.19.16s.12-.1.12-.22l1.88-15.41A.66.66,0,0,1,341.57,250.68Zm-4.86,32.89c.23-1,.47-2.59.72-4.76a45.53,45.53,0,0,0,.44-5.14,15.51,15.51,0,0,0-.25-2.51,6.51,6.51,0,0,0-2.06-4.16,6.44,6.44,0,0,0-4.52-1.6,8.74,8.74,0,0,0-5.16,1.6,9,9,0,0,0-3.29,4.1,12.39,12.39,0,0,0-1.1,2.79,37.35,37.35,0,0,0-.78,4.85,42.5,42.5,0,0,0-.44,4.95,10.27,10.27,0,0,0,.31,2.51,6.43,6.43,0,0,0,2.2,4.26,7.2,7.2,0,0,0,4.88,1.62,7.91,7.91,0,0,0,5-1.62,10.09,10.09,0,0,0,3.17-4.26A12.08,12.08,0,0,0,336.71,283.57Z"/><path class="cls-1" d="M353.38,292.74a9.76,9.76,0,0,1-3.35-6.23,13.83,13.83,0,0,1-.13-2.32,37.41,37.41,0,0,1,.44-5.51,33.62,33.62,0,0,1,1.56-7.77,13.41,13.41,0,0,1,4.89-6.17,13.16,13.16,0,0,1,7.64-2.28,10.76,10.76,0,0,1,7.08,2.32,9.19,9.19,0,0,1,3.32,6.13A12.67,12.67,0,0,1,375,273a54.06,54.06,0,0,1-.44,5.64c-.25,1.92-.49,3.47-.72,4.64a24.52,24.52,0,0,1-.85,3.19,13.41,13.41,0,0,1-4.92,6.2,13,13,0,0,1-7.61,2.32A10.53,10.53,0,0,1,353.38,292.74Zm13.12-2.5a9.69,9.69,0,0,0,3.51-4.86,32.27,32.27,0,0,0,1.25-6.64,50.7,50.7,0,0,0,.5-5.7,7.26,7.26,0,0,0-7.7-7.64,9.44,9.44,0,0,0-5.74,1.82,9.86,9.86,0,0,0-3.53,4.88,31,31,0,0,0-1.26,6.64c-.29,2.55-.44,4.33-.44,5.33a7.89,7.89,0,0,0,.07,1.31,7,7,0,0,0,2.28,4.89,7.66,7.66,0,0,0,5.3,1.81A9.45,9.45,0,0,0,366.5,290.24Z"/><path class="cls-1" d="M404.83,265a8.89,8.89,0,0,1,2.51,6.61,15,15,0,0,1-.13,1.63l-2.56,20.67q-.13.63-.69.63h-2c-.42,0-.58-.21-.5-.63l2.44-20a10.15,10.15,0,0,0,.07-1.32,7.1,7.1,0,0,0-1.88-5.14,6.77,6.77,0,0,0-5.08-1.94,8.76,8.76,0,0,0-6.14,2.29,9.54,9.54,0,0,0-3,6l-2.45,20.17a.66.66,0,0,1-.68.63h-2a.56.56,0,0,1-.47-.19.48.48,0,0,1-.09-.44l3.76-30.32a.6.6,0,0,1,.18-.43.69.69,0,0,1,.51-.19h2a.5.5,0,0,1,.41.19.47.47,0,0,1,.09.43l-.38,3.07c0,.25.09.3.26.13a10.38,10.38,0,0,1,3.88-3.17,12.16,12.16,0,0,1,5.2-1.09A9.19,9.19,0,0,1,404.83,265Z"/><path class="cls-1" d="M437.47,265a8.88,8.88,0,0,1,2.5,6.61c0,.34,0,.88-.12,1.63l-2.57,20.67c-.09.42-.31.63-.69.63h-2c-.42,0-.59-.21-.5-.63l2.44-20a10.56,10.56,0,0,0,.06-1.32,7.06,7.06,0,0,0-1.88-5.14,6.74,6.74,0,0,0-5.07-1.94,8.74,8.74,0,0,0-6.14,2.29,9.6,9.6,0,0,0-3,6l-2.44,20.17c-.09.42-.31.63-.69.63h-2a.56.56,0,0,1-.47-.19.46.46,0,0,1-.1-.44l3.76-30.32a.57.57,0,0,1,.19-.43.65.65,0,0,1,.5-.19h2a.49.49,0,0,1,.41.19.45.45,0,0,1,.1.43l-.38,3.07c0,.25.08.3.25.13a10.46,10.46,0,0,1,3.88-3.17,12.19,12.19,0,0,1,5.2-1.09A9.21,9.21,0,0,1,437.47,265Z"/><path class="cls-1" d="M463.65,290.74a10.26,10.26,0,0,0,3.64-3.73c.25-.38.52-.48.81-.31l1.5.81c.34.25.4.52.19.82a13.27,13.27,0,0,1-4.82,4.88,13.44,13.44,0,0,1-7,1.82,11,11,0,0,1-7-2.13,9,9,0,0,1-3.32-5.82,13.77,13.77,0,0,1-.25-2.83,49.71,49.71,0,0,1,.44-5.57c.25-2,.46-3.59.62-4.64a15.15,15.15,0,0,1,.75-2.88,13.56,13.56,0,0,1,4.8-6.32,12.62,12.62,0,0,1,7.61-2.38c3.5,0,6.13,1,7.86,2.88s2.6,4.57,2.6,8q0,1.69-.5,5.95-.14.63-.69.63h-19.8a.29.29,0,0,0-.31.25,32.89,32.89,0,0,0-.37,4.32A7.37,7.37,0,0,0,452.6,290a8.28,8.28,0,0,0,6,2.06A9.66,9.66,0,0,0,463.65,290.74Zm-12.4-13.94c0,.17,0,.25.19.25h17a.22.22,0,0,0,.25-.25,30.65,30.65,0,0,0,.25-3.88,7.1,7.1,0,0,0-7.58-7.52,9.38,9.38,0,0,0-5.73,1.79,9.25,9.25,0,0,0-3.35,4.73A28.31,28.31,0,0,0,451.25,276.8Z"/><path class="cls-1" d="M497.91,263.46c.3.08.4.35.32.81l-.81,2c-.22.42-.49.54-.82.37a7.51,7.51,0,0,0-3-.43,8.23,8.23,0,0,0-5.92,2.66,10.87,10.87,0,0,0-3,6.36l-2.26,18.66a.66.66,0,0,1-.69.63h-2a.56.56,0,0,1-.47-.19.46.46,0,0,1-.1-.44l3.76-30.32a.61.61,0,0,1,.19-.43.66.66,0,0,1,.5-.19h2a.48.48,0,0,1,.4.19.45.45,0,0,1,.1.43l-.5,4.26c-.05.13,0,.2.06.22s.14,0,.19-.15a12,12,0,0,1,3.76-3.82,9.08,9.08,0,0,1,4.94-1.38A6.74,6.74,0,0,1,497.91,263.46Z"/><path class="cls-1" d="M513.23,294.34a.48.48,0,0,1-.09-.44l5.26-42.59a.58.58,0,0,1,.19-.44.65.65,0,0,1,.5-.19h2a.5.5,0,0,1,.41.19.46.46,0,0,1,.09.44l-5.2,42.59a.66.66,0,0,1-.68.63h-2A.56.56,0,0,1,513.23,294.34Z"/><path class="cls-1" d="M543.64,290.74a10.16,10.16,0,0,0,3.63-3.73c.26-.38.53-.48.82-.31l1.5.81c.33.25.4.52.19.82a13.27,13.27,0,0,1-4.82,4.88,13.44,13.44,0,0,1-7,1.82,11,11,0,0,1-7-2.13,9,9,0,0,1-3.32-5.82,13.77,13.77,0,0,1-.25-2.83,51.67,51.67,0,0,1,.43-5.57c.26-2,.46-3.59.63-4.64a15.15,15.15,0,0,1,.75-2.88,13.49,13.49,0,0,1,4.8-6.32,12.62,12.62,0,0,1,7.61-2.38q5.25,0,7.86,2.88t2.6,8q0,1.69-.5,5.95-.14.63-.69.63h-19.8a.29.29,0,0,0-.31.25,33.2,33.2,0,0,0-.38,4.32,7.37,7.37,0,0,0,2.16,5.58,8.32,8.32,0,0,0,6,2.06A9.66,9.66,0,0,0,543.64,290.74Zm-12.4-13.94c0,.17,0,.25.19.25h17a.22.22,0,0,0,.25-.25,30.65,30.65,0,0,0,.25-3.88,7.49,7.49,0,0,0-2-5.42,7.38,7.38,0,0,0-5.55-2.1,9.38,9.38,0,0,0-5.73,1.79,9.19,9.19,0,0,0-3.35,4.73A28.31,28.31,0,0,0,531.24,276.8Z"/><path class="cls-1" d="M597.32,273.1a40.69,40.69,0,0,1-.5,5.58c-.21,1.84-.43,3.36-.66,4.57a20.48,20.48,0,0,1-.9,3.32,12.6,12.6,0,0,1-4.55,6.17,12.27,12.27,0,0,1-7.42,2.29,9.32,9.32,0,0,1-4.6-1.1,7.37,7.37,0,0,1-3-3.16.15.15,0,0,0-.16-.1.35.35,0,0,0-.15.23l-1.88,15.28a.63.63,0,0,1-.19.44.7.7,0,0,1-.5.19h-2a.5.5,0,0,1-.4-.19.47.47,0,0,1-.1-.44l5.2-42.6a.94.94,0,0,1,.25-.43.59.59,0,0,1,.44-.19h2a.56.56,0,0,1,.47.19.45.45,0,0,1,.1.43l-.38,3c0,.13,0,.2,0,.22s.14,0,.22-.09a10.52,10.52,0,0,1,3.83-3.17,11,11,0,0,1,4.88-1.09,9.9,9.9,0,0,1,6.73,2.25,9.3,9.3,0,0,1,3.1,6.08A13.5,13.5,0,0,1,597.32,273.1Zm-5.45,13a13.64,13.64,0,0,0,1-2.66,52.41,52.41,0,0,0,1.16-9.55,10.71,10.71,0,0,0-.25-2.57A6.34,6.34,0,0,0,591.5,267a7.35,7.35,0,0,0-4.89-1.63,7.77,7.77,0,0,0-5,1.66,9.89,9.89,0,0,0-3.1,4.23,14.11,14.11,0,0,0-.94,2.69,41.54,41.54,0,0,0-.75,4.76,42.66,42.66,0,0,0-.44,5.08,10.19,10.19,0,0,0,.31,2.5,6.28,6.28,0,0,0,6.64,5.76,8.68,8.68,0,0,0,4.95-1.47,9,9,0,0,0,3.26-3.85Z"/><path class="cls-1" d="M608,292.74a9.85,9.85,0,0,1-3.35-6.23,15.37,15.37,0,0,1-.12-2.32,38.72,38.72,0,0,1,.43-5.51,33.53,33.53,0,0,1,1.57-7.77,13.39,13.39,0,0,1,4.88-6.17,13.19,13.19,0,0,1,7.65-2.28,10.76,10.76,0,0,1,7.08,2.32,9.23,9.23,0,0,1,3.32,6.13,13,13,0,0,1,.12,2.13,54.06,54.06,0,0,1-.44,5.64c-.25,1.92-.49,3.47-.72,4.64a24.56,24.56,0,0,1-.84,3.19,13.54,13.54,0,0,1-4.92,6.2,13,13,0,0,1-7.61,2.32A10.58,10.58,0,0,1,608,292.74Zm13.12-2.5a9.69,9.69,0,0,0,3.51-4.86,31.59,31.59,0,0,0,1.25-6.64,49,49,0,0,0,.51-5.7,7.26,7.26,0,0,0-7.71-7.64,9.44,9.44,0,0,0-5.73,1.82,9.94,9.94,0,0,0-3.54,4.88,31.18,31.18,0,0,0-1.25,6.64,53,53,0,0,0-.44,5.33,9.64,9.64,0,0,0,.06,1.31,7,7,0,0,0,2.29,4.89,7.63,7.63,0,0,0,5.29,1.81A9.45,9.45,0,0,0,621.12,290.24Z"/><path class="cls-1" d="M660,263h1.94a.56.56,0,0,1,.47.19.47.47,0,0,1,.1.43l-3.76,30.32a.61.61,0,0,1-.19.44.66.66,0,0,1-.5.19h-1.94a.49.49,0,0,1-.41-.19.46.46,0,0,1-.1-.44l.38-3.07c0-.12,0-.2-.09-.22s-.12,0-.16.16a10.74,10.74,0,0,1-9.08,4.2,9.67,9.67,0,0,1-6.71-2.32,8.19,8.19,0,0,1-2.56-6.39c0-.33,0-.88.12-1.63L640,263.58a.66.66,0,0,1,.69-.62h1.94c.42,0,.59.21.5.62l-2.44,20.17a12.42,12.42,0,0,0-.06,1.38,6.85,6.85,0,0,0,1.84,5.05,6.93,6.93,0,0,0,5.11,1.84,8.87,8.87,0,0,0,6.2-2.28,9.6,9.6,0,0,0,3-6l2.44-20.17A.66.66,0,0,1,660,263Z"/><path class="cls-1" d="M676.25,294l-6.39-30.38v-.13a.49.49,0,0,1,.56-.56h2.32a.69.69,0,0,1,.69.5l5.07,25.93c0,.09,0,.13.16.13a.21.21,0,0,0,.21-.13l11.41-25.93a.91.91,0,0,1,.81-.5l2.26.06c.45,0,.58.23.37.69L680,294a.94.94,0,0,1-.81.5h-2.32A.59.59,0,0,1,676.25,294Z"/><path class="cls-1" d="M700.58,292.74a9.85,9.85,0,0,1-3.35-6.23,15.37,15.37,0,0,1-.12-2.32,38.72,38.72,0,0,1,.43-5.51,33.53,33.53,0,0,1,1.57-7.77,13.35,13.35,0,0,1,4.89-6.17,13.16,13.16,0,0,1,7.64-2.28,10.76,10.76,0,0,1,7.08,2.32,9.23,9.23,0,0,1,3.32,6.13,13,13,0,0,1,.12,2.13,51.39,51.39,0,0,1-.44,5.64c-.25,1.92-.49,3.47-.72,4.64a24.56,24.56,0,0,1-.84,3.19,13.54,13.54,0,0,1-4.92,6.2,13,13,0,0,1-7.61,2.32A10.58,10.58,0,0,1,700.58,292.74Zm13.13-2.5a9.73,9.73,0,0,0,3.5-4.86,32.09,32.09,0,0,0,1.26-6.64,50.7,50.7,0,0,0,.5-5.7,7.26,7.26,0,0,0-7.71-7.64,9.44,9.44,0,0,0-5.73,1.82A9.94,9.94,0,0,0,702,272.1a31.18,31.18,0,0,0-1.25,6.64c-.29,2.55-.44,4.33-.44,5.33a9.64,9.64,0,0,0,.06,1.31,7,7,0,0,0,2.29,4.89,7.63,7.63,0,0,0,5.29,1.81A9.5,9.5,0,0,0,713.71,290.24Z"/><path class="cls-1" d="M730.21,294.28a.49.49,0,0,1-.1-.44l3.7-30.32a1,1,0,0,1,.25-.44.63.63,0,0,1,.44-.19h2a.59.59,0,0,1,.47.19.47.47,0,0,1,.1.44l-3.76,30.32a.59.59,0,0,1-.19.44.69.69,0,0,1-.5.19h-2A.52.52,0,0,1,730.21,294.28Zm4.29-38.37a2.53,2.53,0,0,1-.75-1.91,3.58,3.58,0,0,1,1-2.6,3.26,3.26,0,0,1,2.44-1,2.65,2.65,0,0,1,1.95.75,2.71,2.71,0,0,1,.75,2,3.4,3.4,0,0,1-1,2.51,3.3,3.3,0,0,1-2.44,1A2.69,2.69,0,0,1,734.5,255.91Z"/><path class="cls-1" d="M763.69,263.46c.29.08.4.35.31.81l-.81,2c-.21.42-.48.54-.82.37a7.43,7.43,0,0,0-3-.43,8.2,8.2,0,0,0-5.92,2.66,10.89,10.89,0,0,0-3,6.36l-2.26,18.66a.66.66,0,0,1-.69.63h-2a.56.56,0,0,1-.47-.19.48.48,0,0,1-.09-.44l3.76-30.32a.6.6,0,0,1,.18-.43.67.67,0,0,1,.51-.19h2a.52.52,0,0,1,.41.19.47.47,0,0,1,.09.43l-.5,4.26c0,.13,0,.2.06.22s.15,0,.19-.15a12,12,0,0,1,3.76-3.82,9.09,9.09,0,0,1,4.95-1.38A6.79,6.79,0,0,1,763.69,263.46Z"/><path class="cls-1" d="M882,294.28a.49.49,0,0,1-.09-.44l3.7-30.32a1,1,0,0,1,.24-.44.65.65,0,0,1,.44-.19h2a.6.6,0,0,1,.47.19.49.49,0,0,1,.09.44l-3.76,30.32a.62.62,0,0,1-.18.44.73.73,0,0,1-.51.19h-2A.53.53,0,0,1,882,294.28Zm4.29-38.37a2.53,2.53,0,0,1-.75-1.91,3.62,3.62,0,0,1,1-2.6,3.29,3.29,0,0,1,2.45-1,2.63,2.63,0,0,1,1.94.75,2.71,2.71,0,0,1,.75,2,3.39,3.39,0,0,1-1,2.51,3.32,3.32,0,0,1-2.45,1A2.69,2.69,0,0,1,886.27,255.91Z"/><path class="cls-1" d="M915.46,263.46c.29.08.4.35.32.81l-.82,2c-.21.42-.48.54-.81.37a7.51,7.51,0,0,0-3-.43,8.2,8.2,0,0,0-5.92,2.66,11,11,0,0,0-3,6.36l-2.25,18.66q-.13.63-.69.63h-2a.57.57,0,0,1-.47-.19.48.48,0,0,1-.09-.44l3.76-30.32a.57.57,0,0,1,.19-.43.65.65,0,0,1,.5-.19h2a.49.49,0,0,1,.41.19.47.47,0,0,1,.09.43l-.5,4.26c0,.13,0,.2.06.22s.15,0,.19-.15a12.26,12.26,0,0,1,3.76-3.82,9.09,9.09,0,0,1,5-1.38A6.77,6.77,0,0,1,915.46,263.46Z"/><path class="cls-1" d="M803.9,250.68h2c.37,0,.56.21.56.63l-5.26,42.59a.66.66,0,0,1-.69.63h-2c-.42,0-.59-.21-.5-.63l.37-3.07c0-.29-.1-.33-.31-.12a10.76,10.76,0,0,1-8.71,4.32,9.85,9.85,0,0,1-6.73-2.26,9.55,9.55,0,0,1-3.17-6.07,13.64,13.64,0,0,1-.12-2.13,56.25,56.25,0,0,1,.44-5.76c.25-1.93.49-3.48.72-4.67a24,24,0,0,1,.84-3.23,13,13,0,0,1,4.61-6.17,12.33,12.33,0,0,1,7.42-2.28,9.11,9.11,0,0,1,4.6,1.12,7.58,7.58,0,0,1,3,3.2c0,.12.11.18.19.16a.21.21,0,0,0,.13-.22l1.87-15.41Q803.34,250.68,803.9,250.68Zm-4.85,32.89c.23-1,.47-2.59.72-4.76a45.53,45.53,0,0,0,.44-5.14,16.73,16.73,0,0,0-.25-2.51,6.29,6.29,0,0,0-6.58-5.76,8.8,8.8,0,0,0-5.17,1.6,9,9,0,0,0-3.29,4.1,12.37,12.37,0,0,0-1.09,2.79,37,37,0,0,0-.79,4.85,42,42,0,0,0-.43,4.95,10.27,10.27,0,0,0,.31,2.51,6.46,6.46,0,0,0,2.19,4.26,7.21,7.21,0,0,0,4.89,1.62,7.91,7.91,0,0,0,5-1.62,10.16,10.16,0,0,0,3.16-4.26A11.56,11.56,0,0,0,799.05,283.57Z"/><path class="cls-1" d="M819,250.9a.71.71,0,0,1,0,.53l-5.76,11.21a.81.81,0,0,1-.75.51H811c-.41,0-.56-.23-.43-.69l5.13-11.28a.74.74,0,0,1,.75-.5h2.13A.39.39,0,0,1,819,250.9Z"/><path class="cls-1" d="M839.61,263h2c.38,0,.57.21.57.62l-3.76,30.32q-.13.63-.69.63h-2c-.41,0-.58-.21-.5-.63l.44-3.88c0-.13,0-.2-.06-.22s-.15,0-.19.15a11.6,11.6,0,0,1-3.88,3.73,10.52,10.52,0,0,1-5.39,1.35,9.6,9.6,0,0,1-6.64-2.35,9.14,9.14,0,0,1-3-6.17,15.42,15.42,0,0,1-.06-1.63c0-1,.11-2.57.31-4.57l.19-1.5q.44-3.19.72-4.89a15.42,15.42,0,0,1,.85-3.13,12.81,12.81,0,0,1,4.54-6,11.89,11.89,0,0,1,7.23-2.32,8.75,8.75,0,0,1,5,1.31,7.73,7.73,0,0,1,2.92,3.7q.06.12.15.12c.07,0,.12-.06.16-.19l.44-3.82A.66.66,0,0,1,839.61,263Zm-3.17,20.36c.15-.76.35-2.26.6-4.51.33-2.72.5-4.54.5-5.45a12.17,12.17,0,0,0-.06-1.38,6.88,6.88,0,0,0-2-4.73,6.76,6.76,0,0,0-5-1.85,9,9,0,0,0-5.64,1.88A9.69,9.69,0,0,0,821.5,272a14.78,14.78,0,0,0-.59,2.16c-.15.78-.34,2.29-.59,4.54q-.57,4.45-.57,5.7a6,6,0,0,0,.06,1,6.6,6.6,0,0,0,2.2,4.76,7.42,7.42,0,0,0,5.19,1.87,8.4,8.4,0,0,0,5.49-1.87,9.76,9.76,0,0,0,3.16-4.76A12.81,12.81,0,0,0,836.44,283.32Z"/><path class="cls-1" d="M872.3,263h2c.37,0,.56.21.56.62l-3.75,30.26q-.89,7.08-5.39,10.27t-12,2.88a.57.57,0,0,1-.5-.69l.31-1.81a.61.61,0,0,1,.19-.44.66.66,0,0,1,.5-.19q6.45.25,9.74-2.22t4-7.86l.38-3.14c0-.12,0-.19,0-.21s-.13,0-.21.09a10.78,10.78,0,0,1-8.9,4.32,10.1,10.1,0,0,1-6.64-2.22,9,9,0,0,1-3.19-6.11c-.09-.92-.13-1.67-.13-2.26a47.75,47.75,0,0,1,.38-5.44c.25-1.88.5-3.45.75-4.7a18,18,0,0,1,1-3.39,13.25,13.25,0,0,1,4.57-6,11.83,11.83,0,0,1,7.14-2.28q5.58,0,7.9,4.26a.13.13,0,0,0,.19.06.21.21,0,0,0,.12-.19l.37-3A.67.67,0,0,1,872.3,263Zm-3.1,20c.15-.91.35-2.34.6-4.26s.41-3.34.47-4.26a20.29,20.29,0,0,0,0-2.44,6.89,6.89,0,0,0-2-4.76,6.81,6.81,0,0,0-5-1.88,8.87,8.87,0,0,0-5.61,1.88A10.54,10.54,0,0,0,854.2,272a30,30,0,0,0-1.38,6.64,44,44,0,0,0-.31,4.95,14.12,14.12,0,0,0,.06,1.69,7.45,7.45,0,0,0,2.29,4.76A7.21,7.21,0,0,0,860,292a8.38,8.38,0,0,0,5.48-1.88,9.65,9.65,0,0,0,3.16-4.76A14.14,14.14,0,0,0,869.2,283Z"/><path class="cls-1" d="M239.47,348V325c0-.23.11-.34.33-.34h1.74c.22,0,.33.11.33.34v21.18a.13.13,0,0,0,.14.14h12a.31.31,0,0,1,.35.34V348a.31.31,0,0,1-.35.34H239.8C239.58,348.38,239.47,348.27,239.47,348Z"/><path class="cls-1" d="M268.93,332.49a5.43,5.43,0,0,1,1.67,4.15V348a.3.3,0,0,1-.34.34h-1.73a.3.3,0,0,1-.34-.34v-1.39a.12.12,0,0,0-.05-.1.1.1,0,0,0-.12,0,5.3,5.3,0,0,1-2.21,1.55,8.29,8.29,0,0,1-3,.52,6.51,6.51,0,0,1-4-1.22,4.35,4.35,0,0,1-1.63-3.73,4.9,4.9,0,0,1,1.85-4,8.06,8.06,0,0,1,5.14-1.47h3.94a.13.13,0,0,0,.14-.14v-1.29a3.75,3.75,0,0,0-1-2.73,4,4,0,0,0-3-1,5.07,5.07,0,0,0-2.65.62,2.66,2.66,0,0,0-1.26,1.75c-.07.23-.2.33-.41.31l-1.83-.24q-.37-.08-.3-.27a4.35,4.35,0,0,1,2-3.09,7.77,7.77,0,0,1,4.42-1.19A6.61,6.61,0,0,1,268.93,332.49Zm-2.2,13.09a3.12,3.12,0,0,0,1.46-2.7v-2.65c0-.09-.05-.13-.14-.13h-3.56a6.32,6.32,0,0,0-3.6.91,2.92,2.92,0,0,0-1.36,2.55,2.63,2.63,0,0,0,1,2.26,4.42,4.42,0,0,0,2.69.76A6,6,0,0,0,266.73,345.58Z"/><path class="cls-1" d="M293.87,332.56a5.74,5.74,0,0,1,1.61,4.28V348c0,.23-.11.34-.33.34h-1.74a.3.3,0,0,1-.34-.34V337.31a4.26,4.26,0,0,0-1.13-3.05,3.9,3.9,0,0,0-2.94-1.19,3.95,3.95,0,0,0-4.17,4.18V348a.31.31,0,0,1-.35.34h-1.73a.3.3,0,0,1-.34-.34v-16.5a.31.31,0,0,1,.34-.34h1.73a.31.31,0,0,1,.35.34V333a.11.11,0,0,0,0,.1s.07,0,.09,0a5.24,5.24,0,0,1,4.58-2.1A5.89,5.89,0,0,1,293.87,332.56Z"/><path class="cls-1" d="M302.82,347.4a6.39,6.39,0,0,1-2.44-3.47,14.63,14.63,0,0,1-.48-4.17,14.31,14.31,0,0,1,.48-4.14,6.17,6.17,0,0,1,2.41-3.43,7.14,7.14,0,0,1,4.27-1.26,6.91,6.91,0,0,1,4.16,1.26,6.26,6.26,0,0,1,2.4,3.39,14.5,14.5,0,0,1,.47,4.18,14.14,14.14,0,0,1-.47,4.17,6.28,6.28,0,0,1-2.4,3.47,7,7,0,0,1-4.19,1.25A7.06,7.06,0,0,1,302.82,347.4Zm7-1.75a4.48,4.48,0,0,0,1.57-2.43,15.14,15.14,0,0,0,.3-3.43,16.57,16.57,0,0,0-.27-3.43,4.36,4.36,0,0,0-1.58-2.42A4.51,4.51,0,0,0,307,333a4.44,4.44,0,0,0-2.81.9,4.39,4.39,0,0,0-1.56,2.42,21.15,21.15,0,0,0,0,6.86,4.18,4.18,0,0,0,1.54,2.43,4.57,4.57,0,0,0,2.87.9A4.39,4.39,0,0,0,309.81,345.65Z"/><path class="cls-1" d="M329.71,331.2h1.73a.3.3,0,0,1,.34.34V348a.3.3,0,0,1-.34.34h-1.73a.3.3,0,0,1-.34-.34v-1.46a.1.1,0,0,0-.07-.1.07.07,0,0,0-.1,0,5.08,5.08,0,0,1-4.52,2.1,6.86,6.86,0,0,1-3-.66,5.12,5.12,0,0,1-2.17-1.92,5.45,5.45,0,0,1-.8-3V331.54a.3.3,0,0,1,.34-.34h1.73a.3.3,0,0,1,.34.34v10.77a4.24,4.24,0,0,0,1.09,3.07,3.86,3.86,0,0,0,3,1.14,4.12,4.12,0,0,0,3.07-1.16,4.16,4.16,0,0,0,1.14-3.05V331.54A.3.3,0,0,1,329.71,331.2Z"/><path class="cls-1" d="M341.15,348.11l-5.57-16.53,0-.14q0-.24.3-.24h1.94a.4.4,0,0,1,.41.28l4.24,13.3a.1.1,0,0,0,.1.07.1.1,0,0,0,.1-.07l4.25-13.3a.39.39,0,0,1,.41-.28l1.93,0c.25,0,.34.12.27.37l-5.57,16.5a.38.38,0,0,1-.4.27h-2A.4.4,0,0,1,341.15,348.11Z"/><path class="cls-1" d="M366,339.28v1.09a.31.31,0,0,1-.35.34h-11c-.09,0-.14,0-.14.13a15.76,15.76,0,0,0,.21,2.42,4.06,4.06,0,0,0,1.59,2.41,5.22,5.22,0,0,0,3.13.88,4.84,4.84,0,0,0,2.51-.65,4.49,4.49,0,0,0,1.7-1.83c.13-.2.29-.25.47-.14l1.33.79a.33.33,0,0,1,.13.47,6,6,0,0,1-2.54,2.56,7.94,7.94,0,0,1-3.91.94,7.19,7.19,0,0,1-4-1.16,6.08,6.08,0,0,1-2.34-3.12,13.91,13.91,0,0,1-.61-4.69c0-1,0-1.72,0-2.32a7.45,7.45,0,0,1,.25-1.61,6.32,6.32,0,0,1,2.33-3.54,6.8,6.8,0,0,1,4.23-1.32,6.7,6.7,0,0,1,4.75,1.56,7.24,7.24,0,0,1,2.07,4.42A17.13,17.13,0,0,1,366,339.28Zm-9.73-5.38a4,4,0,0,0-1.45,2.33,11.69,11.69,0,0,0-.27,2.31c0,.09.05.13.14.13h8.79c.09,0,.14,0,.14-.13a15.94,15.94,0,0,0-.21-2.18,4.21,4.21,0,0,0-1.51-2.42,4.45,4.45,0,0,0-2.86-.9A4.3,4.3,0,0,0,356.31,333.9Z"/><path class="cls-1" d="M370.82,348V325a.3.3,0,0,1,.34-.34h1.73a.3.3,0,0,1,.34.34V348a.3.3,0,0,1-.34.34h-1.73A.3.3,0,0,1,370.82,348Z"/><path class="cls-1" d="M378.63,348V325a.3.3,0,0,1,.34-.34h1.73a.3.3,0,0,1,.34.34V348a.3.3,0,0,1-.34.34H379A.3.3,0,0,1,378.63,348Z"/><path class="cls-1" d="M399.75,339.28v1.09a.3.3,0,0,1-.34.34h-11c-.09,0-.14,0-.14.13a15.76,15.76,0,0,0,.21,2.42,4.11,4.11,0,0,0,1.59,2.41,5.22,5.22,0,0,0,3.13.88,4.81,4.81,0,0,0,2.51-.65,4.43,4.43,0,0,0,1.7-1.83c.13-.2.29-.25.47-.14l1.33.79a.33.33,0,0,1,.13.47,6,6,0,0,1-2.54,2.56,7.91,7.91,0,0,1-3.91.94,7.19,7.19,0,0,1-4-1.16,6.19,6.19,0,0,1-2.34-3.12,13.91,13.91,0,0,1-.61-4.69c0-1,0-1.72.05-2.32a7.45,7.45,0,0,1,.25-1.61,6.37,6.37,0,0,1,2.33-3.54,6.82,6.82,0,0,1,4.23-1.32,6.68,6.68,0,0,1,4.75,1.56,7.24,7.24,0,0,1,2.07,4.42A17.13,17.13,0,0,1,399.75,339.28ZM390,333.9a4,4,0,0,0-1.44,2.33,10.81,10.81,0,0,0-.28,2.31c0,.09.05.13.14.13h8.8c.09,0,.13,0,.13-.13a14.81,14.81,0,0,0-.2-2.18,4.31,4.31,0,0,0-1.51-2.42,4.5,4.5,0,0,0-2.87-.9A4.34,4.34,0,0,0,390,333.9Z"/><path class="cls-1" d="M432.73,332.49a5.78,5.78,0,0,1,1.48,4.18V348a.3.3,0,0,1-.34.34h-1.7a.3.3,0,0,1-.34-.34v-10.9a4.11,4.11,0,0,0-1.07-3,3.74,3.74,0,0,0-2.8-1.1,3.92,3.92,0,0,0-2.9,1.09,3.88,3.88,0,0,0-1.11,2.92v11c0,.23-.11.34-.33.34h-1.74a.3.3,0,0,1-.34-.34v-10.9a4.14,4.14,0,0,0-1.05-3,3.73,3.73,0,0,0-2.82-1.1,3.84,3.84,0,0,0-2.87,1.09,4,4,0,0,0-1.06,2.92v11a.31.31,0,0,1-.35.34h-1.73a.3.3,0,0,1-.34-.34v-16.5a.31.31,0,0,1,.34-.34h1.73a.31.31,0,0,1,.35.34v1.36c0,.05,0,.07,0,.09s.08,0,.12-.06a4.67,4.67,0,0,1,1.92-1.47,6.62,6.62,0,0,1,2.6-.49,6,6,0,0,1,3,.71,4.5,4.5,0,0,1,1.9,2.07c.05.11.11.11.17,0a4.89,4.89,0,0,1,2.11-2.09,6.7,6.7,0,0,1,3.09-.69A5.34,5.34,0,0,1,432.73,332.49Z"/><path class="cls-1" d="M450.06,332.49a5.43,5.43,0,0,1,1.67,4.15V348a.3.3,0,0,1-.34.34h-1.74c-.22,0-.33-.11-.33-.34v-1.39a.11.11,0,0,0-.06-.1s-.07,0-.11,0a5.3,5.3,0,0,1-2.21,1.55,8.32,8.32,0,0,1-3,.52,6.49,6.49,0,0,1-4-1.22,4.35,4.35,0,0,1-1.63-3.73,4.87,4.87,0,0,1,1.85-4,8.06,8.06,0,0,1,5.14-1.47h3.94a.13.13,0,0,0,.14-.14v-1.29a3.79,3.79,0,0,0-1-2.73,4,4,0,0,0-3-1,5.09,5.09,0,0,0-2.65.62,2.68,2.68,0,0,0-1.25,1.75c-.07.23-.2.33-.41.31l-1.83-.24c-.25-.05-.35-.14-.31-.27a4.36,4.36,0,0,1,2-3.09,7.76,7.76,0,0,1,4.41-1.19A6.64,6.64,0,0,1,450.06,332.49Zm-2.2,13.09a3.12,3.12,0,0,0,1.46-2.7v-2.65c0-.09-.05-.13-.14-.13h-3.57A6.3,6.3,0,0,0,442,341a2.92,2.92,0,0,0-1.36,2.55,2.61,2.61,0,0,0,1,2.26,4.38,4.38,0,0,0,2.69.76A6,6,0,0,0,447.86,345.58Z"/><path class="cls-1" d="M465.61,331.48a.36.36,0,0,1,.21.44l-.38,1.66c-.07.23-.21.29-.44.2a3.61,3.61,0,0,0-1.32-.23l-.45,0a4.06,4.06,0,0,0-2.92,1.31,4.41,4.41,0,0,0-1.15,3.14v10a.3.3,0,0,1-.34.34h-1.73a.3.3,0,0,1-.34-.34v-16.5a.3.3,0,0,1,.34-.34h1.73a.3.3,0,0,1,.34.34v2.07c0,.07,0,.11,0,.12s.06,0,.09-.05a5.33,5.33,0,0,1,1.81-1.95,4.67,4.67,0,0,1,2.57-.7A3.93,3.93,0,0,1,465.61,331.48Z"/><path class="cls-1" d="M479.7,331.2h1.73a.3.3,0,0,1,.34.34v23.09a.3.3,0,0,1-.34.34H479.7a.3.3,0,0,1-.34-.34v-8a.08.08,0,0,0-.05-.08s-.07,0-.12.05a5,5,0,0,1-1.87,1.51,5.65,5.65,0,0,1-2.44.52,6.46,6.46,0,0,1-4-1.24A6.24,6.24,0,0,1,468.6,344a16.11,16.11,0,0,1-.41-4.21,15.09,15.09,0,0,1,.48-4.31,6.24,6.24,0,0,1,2.22-3.33,6.42,6.42,0,0,1,4-1.22,5.39,5.39,0,0,1,2.46.55,5.15,5.15,0,0,1,1.85,1.52c.05.05.09.06.12.05a.08.08,0,0,0,.05-.08v-1.43A.3.3,0,0,1,479.7,331.2Zm-.51,11.16a18.91,18.91,0,0,0,.14-2.57,18.31,18.31,0,0,0-.14-2.54,6.19,6.19,0,0,0-.44-1.6,4.16,4.16,0,0,0-1.36-1.9,3.56,3.56,0,0,0-2.27-.71,4.17,4.17,0,0,0-2.46.71,3.65,3.65,0,0,0-1.45,1.93,6,6,0,0,0-.47,1.62,17.61,17.61,0,0,0-.14,2.49,13.47,13.47,0,0,0,.19,2.6,5.86,5.86,0,0,0,.59,1.68,3.85,3.85,0,0,0,1.43,1.8,4,4,0,0,0,2.34.68,3.61,3.61,0,0,0,2.23-.7,3.89,3.89,0,0,0,1.34-1.85A5.85,5.85,0,0,0,479.19,342.36Z"/><path class="cls-1" d="M498.17,331.2h1.73a.3.3,0,0,1,.34.34V348a.3.3,0,0,1-.34.34h-1.73a.3.3,0,0,1-.34-.34v-1.46a.1.1,0,0,0-.07-.1.07.07,0,0,0-.1,0,5.08,5.08,0,0,1-4.52,2.1,6.86,6.86,0,0,1-3-.66A5.12,5.12,0,0,1,488,346a5.45,5.45,0,0,1-.8-3V331.54a.3.3,0,0,1,.34-.34h1.73a.3.3,0,0,1,.34.34v10.77a4.24,4.24,0,0,0,1.09,3.07,3.86,3.86,0,0,0,2.95,1.14,4.12,4.12,0,0,0,3.07-1.16,4.16,4.16,0,0,0,1.14-3.05V331.54A.3.3,0,0,1,498.17,331.2Z"/><path class="cls-1" d="M519,339.28v1.09a.3.3,0,0,1-.34.34h-11c-.09,0-.14,0-.14.13a15.76,15.76,0,0,0,.21,2.42,4.11,4.11,0,0,0,1.59,2.41,5.22,5.22,0,0,0,3.13.88,4.81,4.81,0,0,0,2.51-.65,4.43,4.43,0,0,0,1.7-1.83c.13-.2.29-.25.47-.14l1.33.79a.33.33,0,0,1,.13.47,6,6,0,0,1-2.54,2.56,7.91,7.91,0,0,1-3.91.94,7.19,7.19,0,0,1-4-1.16,6.19,6.19,0,0,1-2.34-3.12,13.91,13.91,0,0,1-.61-4.69c0-1,0-1.72.05-2.32a7.45,7.45,0,0,1,.25-1.61,6.37,6.37,0,0,1,2.33-3.54,6.82,6.82,0,0,1,4.23-1.32,6.68,6.68,0,0,1,4.75,1.56,7.24,7.24,0,0,1,2.07,4.42A17.13,17.13,0,0,1,519,339.28Zm-9.73-5.38a4,4,0,0,0-1.44,2.33,10.81,10.81,0,0,0-.28,2.31c0,.09.05.13.14.13h8.8c.09,0,.13,0,.13-.13a14.81,14.81,0,0,0-.2-2.18,4.31,4.31,0,0,0-1.51-2.42A4.5,4.5,0,0,0,512,333,4.34,4.34,0,0,0,509.22,333.9Z"/><path class="cls-1" d="M541.53,324.62h1.73c.22,0,.33.11.33.34V348c0,.23-.11.34-.33.34h-1.73a.31.31,0,0,1-.35-.34v-1.42c0-.05,0-.08,0-.09s-.07,0-.11.05a5.11,5.11,0,0,1-1.86,1.53,5.49,5.49,0,0,1-2.46.54,6.35,6.35,0,0,1-4-1.22,6.19,6.19,0,0,1-2.23-3.32,15.18,15.18,0,0,1-.47-4.32,16.25,16.25,0,0,1,.4-4.21,6.33,6.33,0,0,1,2.24-3.41,6.48,6.48,0,0,1,4-1.24,5.7,5.7,0,0,1,2.45.53A4.91,4.91,0,0,1,541,333s.08.06.11,0,0,0,0-.09v-8A.31.31,0,0,1,541.53,324.62ZM541,342.34a18.66,18.66,0,0,0,.13-2.55,19,19,0,0,0-.13-2.56,6.39,6.39,0,0,0-.48-1.65,3.87,3.87,0,0,0-1.34-1.85A3.62,3.62,0,0,0,537,333a4,4,0,0,0-2.35.68,3.77,3.77,0,0,0-1.42,1.8,6,6,0,0,0-.6,1.67,14.57,14.57,0,0,0-.18,2.6,18,18,0,0,0,.13,2.5,5.52,5.52,0,0,0,.48,1.61,3.7,3.7,0,0,0,1.44,1.94,4.27,4.27,0,0,0,2.46.71,3.65,3.65,0,0,0,2.28-.71,4.17,4.17,0,0,0,1.35-1.91A6.1,6.1,0,0,0,541,342.34Z"/><path class="cls-1" d="M562.37,339.28v1.09a.3.3,0,0,1-.34.34h-11c-.09,0-.13,0-.13.13a14.93,14.93,0,0,0,.2,2.42,4.08,4.08,0,0,0,1.6,2.41,5.17,5.17,0,0,0,3.12.88,4.81,4.81,0,0,0,2.51-.65,4.43,4.43,0,0,0,1.7-1.83c.14-.2.3-.25.48-.14l1.32.79a.34.34,0,0,1,.14.47,6.11,6.11,0,0,1-2.55,2.56,7.87,7.87,0,0,1-3.9.94,7.22,7.22,0,0,1-4-1.16,6.19,6.19,0,0,1-2.34-3.12,14.18,14.18,0,0,1-.61-4.69c0-1,0-1.72.05-2.32a7.42,7.42,0,0,1,.26-1.61,6.3,6.3,0,0,1,2.32-3.54,6.84,6.84,0,0,1,4.23-1.32,6.68,6.68,0,0,1,4.75,1.56,7.24,7.24,0,0,1,2.07,4.42A17.13,17.13,0,0,1,562.37,339.28Zm-9.73-5.38a4,4,0,0,0-1.44,2.33,10.33,10.33,0,0,0-.27,2.31c0,.09,0,.13.13.13h8.8c.09,0,.13,0,.13-.13a14.81,14.81,0,0,0-.2-2.18,4.26,4.26,0,0,0-1.51-2.42,4.5,4.5,0,0,0-2.87-.9A4.34,4.34,0,0,0,552.64,333.9Z"/><path class="cls-1" d="M573.83,348.26a.38.38,0,0,1-.12-.29V325a.38.38,0,0,1,.12-.28.4.4,0,0,1,.29-.12h3.12a.38.38,0,0,1,.29.12.38.38,0,0,1,.12.28v19.8a.15.15,0,0,0,.17.17H589.2a.42.42,0,0,1,.29.12.41.41,0,0,1,.11.28V348a.39.39,0,0,1-.4.41H574.12A.4.4,0,0,1,573.83,348.26Z"/><path class="cls-1" d="M593.41,347.77a2.41,2.41,0,0,1,1.73-4.14,2.29,2.29,0,0,1,1.71.68,2.38,2.38,0,0,1,.66,1.73,2.42,2.42,0,0,1-4.1,1.73Z"/><path class="cls-1" d="M616.66,348l-1.12-3.63a.2.2,0,0,0-.17-.14h-9c-.07,0-.12.05-.17.14L605.12,348a.43.43,0,0,1-.44.34h-3.4a.36.36,0,0,1-.3-.12.37.37,0,0,1,0-.35l7.37-23a.43.43,0,0,1,.44-.34H613a.43.43,0,0,1,.44.34l7.4,23a.4.4,0,0,1,0,.17c0,.2-.12.3-.37.3h-3.4A.43.43,0,0,1,616.66,348Zm-9.23-6.85h6.89c.14,0,.18-.07.14-.21L611,329.61c0-.09-.06-.14-.1-.14s-.08,0-.1.14L607.29,341C607.27,341.12,607.32,341.19,607.43,341.19Z"/><path class="cls-1" d="M624.68,347.77a2.54,2.54,0,0,1,0-3.46,2.35,2.35,0,0,1,1.73-.68,2.29,2.29,0,0,1,1.71.68,2.38,2.38,0,0,1,.66,1.73,2.33,2.33,0,0,1-2.37,2.41A2.35,2.35,0,0,1,624.68,347.77Z"/><path class="cls-1" d="M643.89,347.65a7.14,7.14,0,0,1-3-2.8,8,8,0,0,1-1.06-4.17v-8.39a8.07,8.07,0,0,1,1.06-4.18,7.09,7.09,0,0,1,3-2.78,9.72,9.72,0,0,1,4.48-1,9.88,9.88,0,0,1,4.45,1,7,7,0,0,1,3,2.68,7.56,7.56,0,0,1,1.05,4,.38.38,0,0,1-.12.29.38.38,0,0,1-.28.12l-3.13.17c-.27,0-.41-.12-.41-.37a4.36,4.36,0,0,0-1.23-3.23,5.13,5.13,0,0,0-6.64,0,4.3,4.3,0,0,0-1.26,3.23v8.65a4.26,4.26,0,0,0,1.26,3.2,5.14,5.14,0,0,0,6.64,0,4.28,4.28,0,0,0,1.23-3.21c0-.24.14-.37.41-.37l3.13.14a.4.4,0,0,1,.28.1.31.31,0,0,1,.12.24,7.75,7.75,0,0,1-1.05,4.06,7,7,0,0,1-3,2.69,9.87,9.87,0,0,1-4.45.95A9.6,9.6,0,0,1,643.89,347.65Z"/><path class="cls-1" d="M663.43,347.3a7.18,7.18,0,0,1-2.7-3.77,13,13,0,0,1-.57-3.87,12.74,12.74,0,0,1,.54-3.87,6.9,6.9,0,0,1,2.72-3.7,8,8,0,0,1,4.65-1.33,7.49,7.49,0,0,1,4.46,1.33,7,7,0,0,1,2.67,3.66,11,11,0,0,1,.61,3.87,12.29,12.29,0,0,1-.58,3.87,7.29,7.29,0,0,1-2.68,3.79,7.48,7.48,0,0,1-4.52,1.37A7.81,7.81,0,0,1,663.43,347.3Zm6.76-2.75a4.12,4.12,0,0,0,1.31-2,10.27,10.27,0,0,0,.33-2.85,9.66,9.66,0,0,0-.33-2.85,3.74,3.74,0,0,0-1.29-2,3.65,3.65,0,0,0-2.25-.69,3.52,3.52,0,0,0-2.17.69,3.9,3.9,0,0,0-1.32,2,12.11,12.11,0,0,0,0,5.7,3.79,3.79,0,0,0,1.3,2,3.67,3.67,0,0,0,2.26.71A3.4,3.4,0,0,0,670.19,344.55Z"/><path class="cls-1" d="M692.26,332.39a6,6,0,0,1,1.64,4.45V348a.42.42,0,0,1-.11.29.4.4,0,0,1-.29.12h-3.13a.39.39,0,0,1-.4-.41V337.65a3.62,3.62,0,0,0-.89-2.53,3,3,0,0,0-2.34-1,3.08,3.08,0,0,0-2.36.95,3.49,3.49,0,0,0-.9,2.51V348a.41.41,0,0,1-.41.41H680a.4.4,0,0,1-.29-.12.38.38,0,0,1-.12-.29V331.44A.41.41,0,0,1,680,331h3.12a.38.38,0,0,1,.29.12.4.4,0,0,1,.12.29v1.09c0,.07,0,.11.07.13s.08,0,.1-.06a4.93,4.93,0,0,1,4.21-1.84A6,6,0,0,1,692.26,332.39Z"/><path class="cls-1" d="M700.71,348a5.82,5.82,0,0,1-2.49-1.73,3.86,3.86,0,0,1-.89-2.47v-.3a.41.41,0,0,1,.41-.41h3a.41.41,0,0,1,.41.41v.07a1.8,1.8,0,0,0,.93,1.48,4.2,4.2,0,0,0,2.36.62,3.92,3.92,0,0,0,2.21-.56,1.66,1.66,0,0,0,.85-1.41,1.27,1.27,0,0,0-.7-1.17,11,11,0,0,0-2.26-.83l-1.29-.41a19.8,19.8,0,0,1-2.92-1.08,6,6,0,0,1-2-1.58,3.92,3.92,0,0,1-.82-2.57,4.51,4.51,0,0,1,1.87-3.78,8,8,0,0,1,4.92-1.41,9.28,9.28,0,0,1,3.64.66,5.59,5.59,0,0,1,2.41,1.83,4.49,4.49,0,0,1,.85,2.67.41.41,0,0,1-.41.41h-2.89a.41.41,0,0,1-.4-.41,1.75,1.75,0,0,0-.87-1.48,4.16,4.16,0,0,0-2.36-.59,4.21,4.21,0,0,0-2.16.49,1.54,1.54,0,0,0-.83,1.38,1.36,1.36,0,0,0,.8,1.24,14.43,14.43,0,0,0,2.66.93l.75.2a24.63,24.63,0,0,1,3,1.11,5.9,5.9,0,0,1,2.07,1.56,3.91,3.91,0,0,1,.85,2.6,4.42,4.42,0,0,1-1.91,3.78,8.43,8.43,0,0,1-5.06,1.38A10.3,10.3,0,0,1,700.71,348Z"/><path class="cls-1" d="M729.52,339.66l0,1a.37.37,0,0,1-.41.41H718.45a.15.15,0,0,0-.17.17,4.74,4.74,0,0,0,.31,1.52c.54,1.63,1.87,2.46,4,2.48a4.28,4.28,0,0,0,3.67-1.9.4.4,0,0,1,.34-.2.29.29,0,0,1,.23.1l2.11,1.73a.36.36,0,0,1,.1.54,6.84,6.84,0,0,1-2.8,2.31,9,9,0,0,1-3.89.82,8.2,8.2,0,0,1-4.5-1.19,6.79,6.79,0,0,1-2.69-3.33,13.35,13.35,0,0,1-.78-5.09,10.38,10.38,0,0,1,.4-3.19,6.79,6.79,0,0,1,2.57-3.75,7.43,7.43,0,0,1,4.53-1.38q6.69,0,7.54,7A12.15,12.15,0,0,1,729.52,339.66Zm-9.76-4.88a3.35,3.35,0,0,0-1.17,1.75,5.53,5.53,0,0,0-.27,1.5c-.05.11,0,.17.13.17h6.9c.11,0,.16-.06.16-.17a6,6,0,0,0-.2-1.29,3.24,3.24,0,0,0-1.2-1.9,3.61,3.61,0,0,0-2.26-.68A3.41,3.41,0,0,0,719.76,334.78Z"/><path class="cls-1" d="M733.63,328a2.54,2.54,0,1,1,1.73.68A2.37,2.37,0,0,1,733.63,328Zm-.19,20.28a.38.38,0,0,1-.12-.29V331.41a.38.38,0,0,1,.12-.29.4.4,0,0,1,.29-.12h3.13a.38.38,0,0,1,.28.12.38.38,0,0,1,.12.29V348a.38.38,0,0,1-.12.29.38.38,0,0,1-.28.12h-3.13A.4.4,0,0,1,733.44,348.26Z"/><path class="cls-1" d="M741.9,348.26a.38.38,0,0,1-.12-.29V325a.38.38,0,0,1,.12-.28.38.38,0,0,1,.29-.12h3.12a.4.4,0,0,1,.29.12.38.38,0,0,1,.12.28v23a.38.38,0,0,1-.12.29.4.4,0,0,1-.29.12h-3.12A.38.38,0,0,1,741.9,348.26Z"/><path class="cls-1" d="M752.59,348a5.82,5.82,0,0,1-2.49-1.73,3.86,3.86,0,0,1-.89-2.47v-.3a.41.41,0,0,1,.41-.41h3a.41.41,0,0,1,.41.41v.07A1.8,1.8,0,0,0,754,345a4.2,4.2,0,0,0,2.36.62,3.92,3.92,0,0,0,2.21-.56,1.66,1.66,0,0,0,.85-1.41,1.27,1.27,0,0,0-.7-1.17,11,11,0,0,0-2.26-.83l-1.29-.41a19.8,19.8,0,0,1-2.92-1.08,6,6,0,0,1-2-1.58,3.92,3.92,0,0,1-.82-2.57,4.51,4.51,0,0,1,1.87-3.78,8,8,0,0,1,4.92-1.41,9.34,9.34,0,0,1,3.64.66,5.59,5.59,0,0,1,2.41,1.83,4.49,4.49,0,0,1,.85,2.67.41.41,0,0,1-.41.41h-2.89a.4.4,0,0,1-.29-.12.39.39,0,0,1-.11-.29,1.75,1.75,0,0,0-.87-1.48,4.16,4.16,0,0,0-2.36-.59,4.21,4.21,0,0,0-2.16.49,1.54,1.54,0,0,0-.83,1.38A1.36,1.36,0,0,0,754,337a14.43,14.43,0,0,0,2.66.93l.75.2a23.83,23.83,0,0,1,3,1.11,5.73,5.73,0,0,1,2.07,1.56,3.86,3.86,0,0,1,.85,2.6,4.41,4.41,0,0,1-1.9,3.78,8.43,8.43,0,0,1-5.06,1.38A10.3,10.3,0,0,1,752.59,348Z"/><path class="cls-1" d="M792.88,348.15c0,.15-.12.23-.34.23H789a.66.66,0,0,1-.51-.23l-1.53-1.7a.16.16,0,0,0-.24,0,11.6,11.6,0,0,1-6.85,2.2,8.53,8.53,0,0,1-5.15-1.47,5,5,0,0,1-2-4.33,6.09,6.09,0,0,1,1.28-3.91,13.44,13.44,0,0,1,3.44-2.95c.14-.09.15-.17,0-.24a18.51,18.51,0,0,1-2.38-3.36,5.54,5.54,0,0,1-.58-2.48,5.09,5.09,0,0,1,.82-2.83,5.56,5.56,0,0,1,2.29-2,7.6,7.6,0,0,1,3.38-.73,8.06,8.06,0,0,1,3.49.73,5.83,5.83,0,0,1,2.4,2.06,5.5,5.5,0,0,1,.86,3.05,5.69,5.69,0,0,1-1.22,3.64,12.46,12.46,0,0,1-3.29,2.85c-.12.07-.13.15,0,.24q1.56,1.83,3.81,4.31c.06.09.14.09.23,0a27.37,27.37,0,0,0,2.11-2.72.32.32,0,0,1,.54-.13l2.31,1.32c.27.16.32.34.14.54a31.63,31.63,0,0,1-2.82,3.74l0,.07a.4.4,0,0,0,.14.27c.82.95,1.61,1.85,2.38,2.72.16.2.3.37.42.5l.32.34A.47.47,0,0,1,792.88,348.15Zm-8.49-4.35q.14-.14,0-.24a4,4,0,0,1-.34-.37l-.34-.41-1.46-1.66-.78-.89c-.37-.38-.81-.88-1.33-1.49,0-.07-.12-.08-.23,0a10.86,10.86,0,0,0-2.35,1.93,3.23,3.23,0,0,0-.81,2.14,2.26,2.26,0,0,0,.86,1.85,3.6,3.6,0,0,0,2.33.7A8.21,8.21,0,0,0,784.39,343.8Zm-5.18-15.21a2.15,2.15,0,0,0-.73,1.7,2.71,2.71,0,0,0,.41,1.29,20.57,20.57,0,0,0,1.73,2.31.15.15,0,0,0,.24,0,10.46,10.46,0,0,0,2.22-1.78,2.8,2.8,0,0,0,.76-1.89,2.08,2.08,0,0,0-.74-1.68,3,3,0,0,0-2-.63A2.81,2.81,0,0,0,779.21,328.59Z"/><path class="cls-1" d="M818.24,348l-1.12-3.63c0-.09-.11-.14-.17-.14h-9c-.06,0-.12.05-.17.14L806.69,348a.41.41,0,0,1-.44.34h-3.39a.39.39,0,0,1-.31-.12.35.35,0,0,1,0-.35l7.36-23a.43.43,0,0,1,.45-.34h4.24a.42.42,0,0,1,.44.34l7.4,23a.29.29,0,0,1,0,.17c0,.2-.13.3-.38.3h-3.39A.42.42,0,0,1,818.24,348ZM809,341.19h6.89c.14,0,.18-.07.14-.21l-3.5-11.37c0-.09,0-.14-.1-.14s-.08,0-.1.14L808.87,341C808.84,341.12,808.89,341.19,809,341.19Z"/><path class="cls-1" d="M835.55,331.27a.43.43,0,0,1,.21.51l-.58,3.06c0,.27-.18.35-.48.23a3.83,3.83,0,0,0-1.19-.17,5.18,5.18,0,0,0-.67,0,3.49,3.49,0,0,0-2.38,1,3.26,3.26,0,0,0-1,2.43V348a.38.38,0,0,1-.12.29.4.4,0,0,1-.29.12H826a.4.4,0,0,1-.29-.12.38.38,0,0,1-.12-.29V331.44A.41.41,0,0,1,826,331h3.12a.41.41,0,0,1,.41.41V333c0,.09,0,.14,0,.15s.07,0,.12-.08a4.48,4.48,0,0,1,4-2.21A4,4,0,0,1,835.55,331.27Z"/><path class="cls-1" d="M847.72,334.11a.41.41,0,0,1-.28.11H844c-.11,0-.17.06-.17.18v8.18a2.6,2.6,0,0,0,.56,1.86,2.38,2.38,0,0,0,1.78.58h1a.38.38,0,0,1,.29.12.4.4,0,0,1,.12.29V348a.42.42,0,0,1-.41.45l-1.76,0a7,7,0,0,1-4-.92c-.88-.61-1.33-1.76-1.36-3.46V334.4c0-.12,0-.18-.17-.18h-1.93a.44.44,0,0,1-.29-.11.4.4,0,0,1-.12-.29v-2.38a.41.41,0,0,1,.41-.41h1.93c.12,0,.17,0,.17-.17v-4a.41.41,0,0,1,.41-.41h3a.38.38,0,0,1,.28.12.4.4,0,0,1,.12.29v4a.15.15,0,0,0,.17.17h3.47a.38.38,0,0,1,.28.12.4.4,0,0,1,.12.29v2.38A.4.4,0,0,1,847.72,334.11Z"/><path class="cls-1" d="M853.77,347.3a7.18,7.18,0,0,1-2.7-3.77,13.65,13.65,0,0,1,0-7.74,7,7,0,0,1,2.72-3.7,8,8,0,0,1,4.65-1.33,7.49,7.49,0,0,1,4.46,1.33,7,7,0,0,1,2.67,3.66,11,11,0,0,1,.61,3.87,12,12,0,0,1-.58,3.87,7.29,7.29,0,0,1-2.68,3.79,7.47,7.47,0,0,1-4.51,1.37A7.76,7.76,0,0,1,853.77,347.3Zm6.75-2.75a4,4,0,0,0,1.31-2,10.23,10.23,0,0,0,.34-2.85,9.61,9.61,0,0,0-.34-2.85,3.74,3.74,0,0,0-1.29-2,3.62,3.62,0,0,0-2.24-.69,3.49,3.49,0,0,0-2.17.69,3.91,3.91,0,0,0-1.33,2,12.11,12.11,0,0,0,0,5.7,3.8,3.8,0,0,0,1.31,2,3.63,3.63,0,0,0,2.26.71A3.39,3.39,0,0,0,860.52,344.55Z"/><path class="cls-1" d="M879.86,331.27a.42.42,0,0,1,.2.51l-.57,3.06c0,.27-.19.35-.48.23a3.83,3.83,0,0,0-1.19-.17,5.5,5.5,0,0,0-.68,0,3.47,3.47,0,0,0-2.37,1,3.22,3.22,0,0,0-.95,2.43V348a.38.38,0,0,1-.12.29.4.4,0,0,1-.29.12h-3.13a.36.36,0,0,1-.28-.12.38.38,0,0,1-.12-.29V331.44a.4.4,0,0,1,.12-.29.36.36,0,0,1,.28-.12h3.13a.41.41,0,0,1,.41.41V333c0,.09,0,.14,0,.15s.07,0,.11-.08a4.51,4.51,0,0,1,4-2.21A4,4,0,0,1,879.86,331.27Z"/><path class="cls-1" d="M883.15,328a2.45,2.45,0,1,1,4.14-1.73,2.45,2.45,0,0,1-4.14,1.73ZM883,348.26a.38.38,0,0,1-.11-.29V331.41a.38.38,0,0,1,.11-.29.4.4,0,0,1,.29-.12h3.13a.4.4,0,0,1,.29.12.42.42,0,0,1,.11.29V348a.42.42,0,0,1-.11.29.4.4,0,0,1-.29.12h-3.13A.4.4,0,0,1,883,348.26Z"/><path class="cls-1" d="M894,348a5.86,5.86,0,0,1-2.5-1.73,3.85,3.85,0,0,1-.88-2.47v-.3a.4.4,0,0,1,.12-.29.38.38,0,0,1,.29-.12h3a.4.4,0,0,1,.29.12.44.44,0,0,1,.11.29v.07a1.79,1.79,0,0,0,.94,1.48,4.2,4.2,0,0,0,2.36.62,3.86,3.86,0,0,0,2.2-.56,1.63,1.63,0,0,0,.85-1.41,1.26,1.26,0,0,0-.69-1.17,11.18,11.18,0,0,0-2.26-.83l-1.29-.41a19.39,19.39,0,0,1-2.92-1.08,6,6,0,0,1-2-1.58,3.92,3.92,0,0,1-.82-2.57,4.49,4.49,0,0,1,1.87-3.78,7.94,7.94,0,0,1,4.92-1.41,9.26,9.26,0,0,1,3.63.66,5.63,5.63,0,0,1,2.42,1.83,4.48,4.48,0,0,1,.84,2.67.4.4,0,0,1-.12.29.38.38,0,0,1-.28.12h-2.89a.41.41,0,0,1-.41-.41,1.77,1.77,0,0,0-.86-1.48,5,5,0,0,0-4.52-.1,1.54,1.54,0,0,0-.83,1.38,1.34,1.34,0,0,0,.8,1.24A14.43,14.43,0,0,0,898,338l.75.2a23.83,23.83,0,0,1,3,1.11,5.73,5.73,0,0,1,2.07,1.56,3.86,3.86,0,0,1,.85,2.6,4.41,4.41,0,0,1-1.9,3.78,8.43,8.43,0,0,1-5.06,1.38A10.27,10.27,0,0,1,894,348Z"/></svg>