<svg width="57" height="57" viewBox="0 0 57 57" fill="none" xmlns="http://www.w3.org/2000/svg">
<path d="M28.2689 14.2046C26.8597 14.2046 25.4821 14.6225 24.3104 15.4054C23.1387 16.1883 22.2255 17.301 21.6862 18.603C21.147 19.9049 21.0059 21.3375 21.2808 22.7196C21.5557 24.1017 22.2343 25.3713 23.2307 26.3677C24.2272 27.3642 25.4968 28.0428 26.8789 28.3177C28.261 28.5926 29.6936 28.4515 30.9955 27.9122C32.2974 27.373 33.4102 26.4597 34.1931 25.288C34.976 24.1163 35.3939 22.7388 35.3939 21.3296C35.3917 19.4406 34.6404 17.6296 33.3046 16.2938C31.9689 14.9581 30.1579 14.2067 28.2689 14.2046ZM28.2689 24.8921C27.5643 24.8921 26.8755 24.6832 26.2897 24.2917C25.7038 23.9002 25.2472 23.3439 24.9776 22.6929C24.7079 22.0419 24.6374 21.3256 24.7748 20.6346C24.9123 19.9435 25.2516 19.3087 25.7498 18.8105C26.248 18.3123 26.8828 17.973 27.5739 17.8355C28.2649 17.6981 28.9812 17.7686 29.6322 18.0383C30.2832 18.3079 30.8395 18.7645 31.231 19.3504C31.6224 19.9362 31.8314 20.625 31.8314 21.3296C31.8303 22.2741 31.4546 23.1796 30.7867 23.8475C30.1189 24.5153 29.2134 24.891 28.2689 24.8921Z" fill="#F8F8F8"/>
<path d="M41.9602 7.62741C38.5751 4.24308 34.0562 2.23265 29.2759 1.98414C24.4956 1.73562 19.7927 3.26664 16.0748 6.2817C12.3569 9.29676 9.88768 13.5821 9.14362 18.3107C8.39956 23.0393 9.43343 27.8759 12.0457 31.887L25.5061 52.551C25.8056 53.0108 26.2152 53.3886 26.6976 53.6501C27.1801 53.9116 27.7202 54.0485 28.2689 54.0485C28.8177 54.0485 29.3578 53.9116 29.8403 53.6501C30.3227 53.3886 30.7323 53.0108 31.0318 52.551L44.4926 31.887C46.9165 28.1661 47.9877 23.7251 47.5266 19.3083C47.0656 14.8916 45.1003 10.7675 41.9602 7.62741ZM41.5077 29.9425L28.269 50.2654L15.0302 29.9425C10.9778 23.7216 11.847 15.3964 17.0968 10.1464C18.5639 8.67925 20.3057 7.51541 22.2226 6.72137C24.1395 5.92734 26.1941 5.51865 28.269 5.51865C30.3439 5.51865 32.3984 5.92734 34.3154 6.72137C36.2323 7.51541 37.9741 8.67925 39.4412 10.1464C44.691 15.3964 45.56 23.7216 41.5077 29.9425Z" fill="#F8F8F8"/>
</svg>
