<svg width="66" height="66" viewBox="0 0 66 66" fill="none" xmlns="http://www.w3.org/2000/svg">
<path d="M18.6686 6.23458L22.5814 5.056C24.3626 4.51863 26.2785 4.64782 27.9714 5.41946C29.6643 6.1911 31.0186 7.55244 31.7814 9.24936L34.2163 14.6661C34.8724 16.1253 35.0552 17.7533 34.739 19.3217C34.4228 20.8901 33.6234 22.3201 32.4531 23.4111L28.1985 27.3781C28.1459 27.4273 28.1028 27.4856 28.0712 27.5502C27.6257 28.4601 28.3022 30.8903 30.4213 34.5627C32.8114 38.7019 34.6571 40.3377 35.5127 40.0855L41.0968 38.3766C42.6261 37.9096 44.2631 37.9328 45.7785 38.443C47.2939 38.9532 48.6117 39.9248 49.5471 41.2217L53.0074 46.0137C54.0938 47.5184 54.597 49.3662 54.4236 51.214C54.2502 53.0617 53.4119 54.7836 52.0646 56.0599L49.0875 58.8767C48.0522 59.8573 46.7951 60.5729 45.4234 60.9624C44.0517 61.3519 42.6061 61.4038 41.2099 61.1136C32.9199 59.3881 25.4925 52.7127 18.8642 41.2334C12.2336 29.7471 10.1664 19.9649 12.8299 11.92C13.2758 10.5731 14.0393 9.35339 15.056 8.36382C16.0726 7.37425 17.3125 6.64393 18.6709 6.23458H18.6686ZM19.6916 9.61943C18.8765 9.86493 18.1325 10.303 17.5224 10.8967C16.9123 11.4903 16.4541 12.2221 16.1865 13.0302C13.8906 19.9626 15.7504 28.7689 21.9261 39.4656C28.0971 50.1552 34.7867 56.1659 41.9289 57.6509C42.7669 57.8252 43.6347 57.794 44.4581 57.56C45.2815 57.3261 46.0361 56.8963 46.6573 56.3074L49.632 53.4929C50.3578 52.8059 50.8094 51.8788 50.9031 50.8838C50.9967 49.8888 50.726 48.8937 50.1411 48.0833L46.6809 43.2889C46.1772 42.5907 45.4678 42.0676 44.652 41.7929C43.8362 41.5181 42.9549 41.5055 42.1316 41.7567L36.5334 43.4704C33.4361 44.392 30.5226 41.8109 27.3594 36.3282C24.6793 31.6894 23.7506 28.3375 24.8961 25.9969C25.1177 25.5443 25.4194 25.1365 25.7871 24.7924L30.0418 20.8253C30.6722 20.2378 31.1028 19.4677 31.2732 18.6231C31.4435 17.7784 31.3451 16.9016 30.9917 16.1157L28.5568 10.7014C28.1461 9.7874 27.4167 9.05419 26.5049 8.63864C25.5932 8.22309 24.5613 8.15363 23.6021 8.44322L19.6892 9.62179L19.6916 9.61943Z" fill="#F8F8F8"/>
</svg>
