<svg width="63" height="63" viewBox="0 0 63 63" fill="none" xmlns="http://www.w3.org/2000/svg">
<path d="M52.3372 21.0001H55.125C56.5174 21.0001 57.8527 21.5532 58.8373 22.5378C59.8219 23.5224 60.375 24.8577 60.375 26.2501V36.7501C60.375 38.1425 59.8219 39.4778 58.8373 40.4624C57.8527 41.447 56.5174 42.0001 55.125 42.0001H52.3372C51.6973 47.075 49.2273 51.742 45.3908 55.1251C41.5544 58.5082 36.6151 60.375 31.5 60.3751V55.1251C35.6772 55.1251 39.6832 53.4657 42.6369 50.512C45.5906 47.5583 47.25 43.5523 47.25 39.3751V23.6251C47.25 19.4479 45.5906 15.4419 42.6369 12.4882C39.6832 9.53448 35.6772 7.8751 31.5 7.8751C27.3228 7.8751 23.3168 9.53448 20.3631 12.4882C17.4094 15.4419 15.75 19.4479 15.75 23.6251V42.0001H7.875C6.48261 42.0001 5.14726 41.447 4.16269 40.4624C3.17812 39.4778 2.625 38.1425 2.625 36.7501V26.2501C2.625 24.8577 3.17812 23.5224 4.16269 22.5378C5.14726 21.5532 6.48261 21.0001 7.875 21.0001H10.6627C11.3033 15.9257 13.7736 11.2594 17.61 7.87688C21.4464 4.49431 26.3853 2.62793 31.5 2.62793C36.6147 2.62793 41.5536 4.49431 45.39 7.87688C49.2264 11.2594 51.6967 15.9257 52.3372 21.0001ZM7.875 26.2501V36.7501H10.5V26.2501H7.875ZM52.5 26.2501V36.7501H55.125V26.2501H52.5ZM20.37 41.4357L23.1525 36.9837C25.6543 38.5509 28.5478 39.3799 31.5 39.3751C34.4522 39.3799 37.3457 38.5509 39.8475 36.9837L42.63 41.4357C39.2943 43.5256 35.4363 44.6312 31.5 44.6251C27.5637 44.6312 23.7057 43.5256 20.37 41.4357Z" fill="#F8F8F8"/>
</svg>
