<svg width="73" height="73" viewBox="0 0 73 73" fill="none" xmlns="http://www.w3.org/2000/svg">
<path d="M27.3772 36.5C27.3772 31.4606 31.4615 27.3743 36.5011 27.3743C41.5407 27.3743 45.6272 31.4606 45.6272 36.5C45.6272 41.5394 41.5407 45.6257 36.5011 45.6257C31.4615 45.6257 27.3772 41.5394 27.3772 36.5ZM22.4438 36.5C22.4438 44.2636 28.7372 50.5567 36.5011 50.5567C44.265 50.5567 50.5584 44.2636 50.5584 36.5C50.5584 28.7365 44.265 22.4433 36.5011 22.4433C28.7372 22.4433 22.4438 28.7365 22.4438 36.5ZM47.8298 21.8859C47.8295 22.5356 48.0219 23.1708 48.3827 23.7112C48.7434 24.2515 49.2563 24.6728 49.8565 24.9217C50.4567 25.1705 51.1172 25.2359 51.7545 25.1094C52.3918 24.9829 52.9773 24.6702 53.4369 24.211C53.8965 23.7518 54.2096 23.1666 54.3366 22.5294C54.4637 21.8922 54.3989 21.2317 54.1505 20.6313C53.9021 20.031 53.4812 19.5178 52.9411 19.1566C52.401 18.7954 51.7659 18.6025 51.1162 18.6022H51.1149C50.244 18.6026 49.4088 18.9487 48.7929 19.5644C48.1769 20.18 47.8305 21.015 47.8298 21.8859V21.8859ZM25.4412 58.7826C22.7721 58.661 21.3214 58.2165 20.3573 57.8409C19.0792 57.3433 18.1672 56.7507 17.2084 55.7932C16.2496 54.8358 15.6561 53.9247 15.1607 52.6467C14.7848 51.6831 14.3403 50.232 14.2189 47.563C14.0862 44.6775 14.0597 43.8107 14.0597 36.5002C14.0597 29.1898 14.0884 28.3254 14.2189 25.4374C14.3405 22.7685 14.7883 21.3202 15.1607 20.3538C15.6583 19.0757 16.2509 18.1638 17.2084 17.205C18.1659 16.2462 19.077 15.6527 20.3573 15.1574C21.3209 14.7816 22.7721 14.337 25.4412 14.2157C28.3268 14.0829 29.1936 14.0564 36.5011 14.0564C43.8085 14.0564 44.6763 14.0851 47.5643 14.2157C50.2334 14.3372 51.6817 14.7851 52.6482 15.1574C53.9263 15.6527 54.8383 16.2475 55.7971 17.205C56.7559 18.1625 57.3472 19.0757 57.8448 20.3538C58.2206 21.3174 58.6652 22.7685 58.7866 25.4374C58.9193 28.3254 58.9458 29.1898 58.9458 36.5002C58.9458 43.8107 58.9193 44.6751 58.7866 47.563C58.665 50.232 58.2182 51.6826 57.8448 52.6467C57.3472 53.9247 56.7546 54.8367 55.7971 55.7932C54.8396 56.7498 53.9263 57.3433 52.6482 57.8409C51.6845 58.2167 50.2334 58.6613 47.5643 58.7826C44.6787 58.9153 43.8118 58.9418 36.5011 58.9418C29.1904 58.9418 28.3259 58.9153 25.4412 58.7826V58.7826ZM25.2145 9.29078C22.3001 9.4235 20.3087 9.88559 18.5695 10.5623C16.7684 11.2611 15.2437 12.1987 13.72 13.7198C12.1964 15.241 11.2612 16.7681 10.5624 18.5692C9.88562 20.3093 9.42351 22.2996 9.29079 25.2138C9.15588 28.1327 9.125 29.0658 9.125 36.5C9.125 43.9342 9.15588 44.8673 9.29079 47.7862C9.42351 50.7006 9.88562 52.6907 10.5624 54.4308C11.2612 56.2308 12.1966 57.7596 13.72 59.2802C15.2434 60.8007 16.7684 61.7369 18.5695 62.4377C20.312 63.1144 22.3001 63.5765 25.2145 63.7092C28.135 63.8419 29.0666 63.875 36.5011 63.875C43.9356 63.875 44.8688 63.8441 47.7877 63.7092C50.7023 63.5765 52.6924 63.1144 54.4327 62.4377C56.2327 61.7369 57.7585 60.8013 59.2822 59.2802C60.8058 57.759 61.739 56.2308 62.4398 54.4308C63.1166 52.6907 63.5809 50.7004 63.7114 47.7862C63.8441 44.8651 63.875 43.9342 63.875 36.5C63.875 29.0658 63.8441 28.1327 63.7114 25.2138C63.5787 22.2994 63.1166 20.3082 62.4398 18.5692C61.739 16.7692 60.8034 15.2434 59.2822 13.7198C57.7609 12.1963 56.2327 11.2611 54.4349 10.5623C52.6924 9.88559 50.7021 9.42131 47.7899 9.29078C44.871 9.15807 43.9378 9.125 36.5033 9.125C29.0688 9.125 28.135 9.15588 25.2145 9.29078Z" fill="url(#paint0_radial_25_565)"/>
<path d="M27.3772 36.5C27.3772 31.4606 31.4615 27.3743 36.5011 27.3743C41.5407 27.3743 45.6272 31.4606 45.6272 36.5C45.6272 41.5394 41.5407 45.6257 36.5011 45.6257C31.4615 45.6257 27.3772 41.5394 27.3772 36.5ZM22.4438 36.5C22.4438 44.2636 28.7372 50.5567 36.5011 50.5567C44.265 50.5567 50.5584 44.2636 50.5584 36.5C50.5584 28.7365 44.265 22.4433 36.5011 22.4433C28.7372 22.4433 22.4438 28.7365 22.4438 36.5ZM47.8298 21.8859C47.8295 22.5356 48.0219 23.1708 48.3827 23.7112C48.7434 24.2515 49.2563 24.6728 49.8565 24.9217C50.4567 25.1705 51.1172 25.2359 51.7545 25.1094C52.3918 24.9829 52.9773 24.6702 53.4369 24.211C53.8965 23.7518 54.2096 23.1666 54.3366 22.5294C54.4637 21.8922 54.3989 21.2317 54.1505 20.6313C53.9021 20.031 53.4812 19.5178 52.9411 19.1566C52.401 18.7954 51.7659 18.6025 51.1162 18.6022H51.1149C50.244 18.6026 49.4088 18.9487 48.7929 19.5644C48.1769 20.18 47.8305 21.015 47.8298 21.8859V21.8859ZM25.4412 58.7826C22.7721 58.661 21.3214 58.2165 20.3573 57.8409C19.0792 57.3433 18.1672 56.7507 17.2084 55.7932C16.2496 54.8358 15.6561 53.9247 15.1607 52.6467C14.7848 51.6831 14.3403 50.232 14.2189 47.563C14.0862 44.6775 14.0597 43.8107 14.0597 36.5002C14.0597 29.1898 14.0884 28.3254 14.2189 25.4374C14.3405 22.7685 14.7883 21.3202 15.1607 20.3538C15.6583 19.0757 16.2509 18.1638 17.2084 17.205C18.1659 16.2462 19.077 15.6527 20.3573 15.1574C21.3209 14.7816 22.7721 14.337 25.4412 14.2157C28.3268 14.0829 29.1936 14.0564 36.5011 14.0564C43.8085 14.0564 44.6763 14.0851 47.5643 14.2157C50.2334 14.3372 51.6817 14.7851 52.6482 15.1574C53.9263 15.6527 54.8383 16.2475 55.7971 17.205C56.7559 18.1625 57.3472 19.0757 57.8448 20.3538C58.2206 21.3174 58.6652 22.7685 58.7866 25.4374C58.9193 28.3254 58.9458 29.1898 58.9458 36.5002C58.9458 43.8107 58.9193 44.6751 58.7866 47.563C58.665 50.232 58.2182 51.6826 57.8448 52.6467C57.3472 53.9247 56.7546 54.8367 55.7971 55.7932C54.8396 56.7498 53.9263 57.3433 52.6482 57.8409C51.6845 58.2167 50.2334 58.6613 47.5643 58.7826C44.6787 58.9153 43.8118 58.9418 36.5011 58.9418C29.1904 58.9418 28.3259 58.9153 25.4412 58.7826V58.7826ZM25.2145 9.29078C22.3001 9.4235 20.3087 9.88559 18.5695 10.5623C16.7684 11.2611 15.2437 12.1987 13.72 13.7198C12.1964 15.241 11.2612 16.7681 10.5624 18.5692C9.88562 20.3093 9.42351 22.2996 9.29079 25.2138C9.15588 28.1327 9.125 29.0658 9.125 36.5C9.125 43.9342 9.15588 44.8673 9.29079 47.7862C9.42351 50.7006 9.88562 52.6907 10.5624 54.4308C11.2612 56.2308 12.1966 57.7596 13.72 59.2802C15.2434 60.8007 16.7684 61.7369 18.5695 62.4377C20.312 63.1144 22.3001 63.5765 25.2145 63.7092C28.135 63.8419 29.0666 63.875 36.5011 63.875C43.9356 63.875 44.8688 63.8441 47.7877 63.7092C50.7023 63.5765 52.6924 63.1144 54.4327 62.4377C56.2327 61.7369 57.7585 60.8013 59.2822 59.2802C60.8058 57.759 61.739 56.2308 62.4398 54.4308C63.1166 52.6907 63.5809 50.7004 63.7114 47.7862C63.8441 44.8651 63.875 43.9342 63.875 36.5C63.875 29.0658 63.8441 28.1327 63.7114 25.2138C63.5787 22.2994 63.1166 20.3082 62.4398 18.5692C61.739 16.7692 60.8034 15.2434 59.2822 13.7198C57.7609 12.1963 56.2327 11.2611 54.4349 10.5623C52.6924 9.88559 50.7021 9.42131 47.7899 9.29078C44.871 9.15807 43.9378 9.125 36.5033 9.125C29.0688 9.125 28.135 9.15588 25.2145 9.29078Z" fill="url(#paint1_radial_25_565)"/>
<defs>
<radialGradient id="paint0_radial_25_565" cx="0" cy="0" r="1" gradientUnits="userSpaceOnUse" gradientTransform="translate(16.3992 64.1336) scale(71.4744 71.4715)">
<stop offset="0.09" stop-color="#FA8F21"/>
<stop offset="0.78" stop-color="#D82D7E"/>
</radialGradient>
<radialGradient id="paint1_radial_25_565" cx="0" cy="0" r="1" gradientUnits="userSpaceOnUse" gradientTransform="translate(42.3298 66.5864) scale(56.3317 56.3294)">
<stop offset="0.64" stop-color="#8C3AAA" stop-opacity="0"/>
<stop offset="1" stop-color="#8C3AAA"/>
</radialGradient>
</defs>
</svg>
