<svg width="72" height="73" viewBox="0 0 72 73" fill="none" xmlns="http://www.w3.org/2000/svg">
<path d="M6 10.4409C6 8.03562 7.98609 6.08325 10.4344 6.08325H61.5656C64.0148 6.08325 66 8.03562 66 10.4409V62.5596C66 64.9656 64.0148 66.9166 61.5656 66.9166H10.4344C7.98633 66.9166 6 64.9659 6 62.5603V10.4402V10.4409Z" fill="#006699"/>
<path d="M24.2328 56.9929V29.6056H15.2543V56.9929H24.2337H24.2328ZM19.7454 25.8669C22.8757 25.8669 24.8246 23.7639 24.8246 21.1357C24.766 18.4477 22.8757 16.4033 19.8049 16.4033C16.7321 16.4033 14.7251 18.4477 14.7251 21.1355C14.7251 23.7637 16.6732 25.8667 19.6866 25.8667H19.7447L19.7454 25.8669ZM29.2024 56.9929H38.1802V41.7002C38.1802 40.8828 38.2388 40.0632 38.476 39.4794C39.1247 37.8433 40.602 36.1497 43.0828 36.1497C46.3308 36.1497 47.6309 38.661 47.6309 42.343V56.9929H56.6084V41.2899C56.6084 32.878 52.1796 28.9635 46.2727 28.9635C41.4298 28.9635 39.3028 31.7079 38.1211 33.5771H38.1809V29.6065H29.2029C29.3201 32.1758 29.2022 56.9939 29.2022 56.9939L29.2024 56.9929Z" fill="white"/>
</svg>
