<svg width="73" height="73" viewBox="0 0 73 73" fill="none" xmlns="http://www.w3.org/2000/svg">
<path d="M60.6887 24.0901C60.7257 24.6264 60.7257 25.1627 60.7257 25.704C60.7257 42.1956 48.1711 61.2154 25.2143 61.2154V61.2055C18.4328 61.2154 11.7922 59.2729 6.08325 55.6103C7.06934 55.7289 8.06037 55.7882 9.05387 55.7907C14.6738 55.7956 20.1331 53.91 24.5544 50.4377C19.2138 50.3363 14.5305 46.8541 12.8944 41.7705C14.7653 42.1313 16.6929 42.0572 18.5292 41.5555C12.7066 40.3791 8.51757 35.2633 8.51757 29.3221C8.51757 29.2677 8.51757 29.2158 8.51757 29.1639C10.2525 30.1302 12.195 30.6665 14.182 30.7258C8.69799 27.0608 7.00755 19.7652 10.3192 14.0612C16.6559 21.8585 26.0051 26.5986 36.0415 27.1003C35.0356 22.7655 36.4097 18.2231 39.6522 15.1758C44.679 10.4505 52.585 10.6927 57.3103 15.7171C60.1054 15.1659 62.7844 14.1403 65.236 12.6871C64.3043 15.5762 62.3544 18.0303 59.7495 19.5897C62.2234 19.2981 64.6404 18.6358 66.9166 17.625C65.241 20.1359 63.1304 22.3231 60.6887 24.0901Z" fill="#33CCFF"/>
</svg>
