<svg width="1728" height="795" viewBox="0 0 1728 795" fill="none" xmlns="http://www.w3.org/2000/svg">
<path opacity="0.87" d="M475.534 51.1547C334.33 15.5495 219.526 -6.92284 8 123.155L-200.466 275.155C-203.133 423.155 -206.866 723.555 -200.466 741.155C-194.066 758.755 271.534 827.155 503.534 859.155C887.534 878.488 1693.13 910.355 1843.53 883.155C2031.53 849.155 2055.53 593.155 2061.53 583.155C2066.33 575.155 1982.2 273.155 1939.53 123.155L1755.53 3.15466C1657.36 -8.56002 1596.83 9.27872 1473.53 109.155C1412.03 125.812 1359.2 112.295 1227.53 41.1547C1123.99 -9.13108 1047.46 10.4608 873.534 109.155C772.521 163.137 695.429 163.469 475.534 51.1547Z" fill="#C4E390"/>
<path opacity="0.82" d="M644 63C496.049 27.3822 359.634 10.8764 138 141L-58.2974 275.252C-61.0915 423.305 -65.0032 723.811 -58.2974 741.417C-51.5915 759.024 436.257 827.448 679.344 859.459C1081.69 878.799 1925.79 910.677 2083.38 883.468C2280.36 849.456 2305.51 593.365 2311.79 583.361C2316.82 575.359 2228.67 273.252 2183.96 123.198L1991.17 3.1559C1888.31 -8.56293 1863.19 9.28214 1734 109.193C1669.56 125.857 1575.9 112.335 1437.94 41.1694C1329.45 -9.13419 1249.26 10.4646 1067.02 109.193C961.185 163.195 874.403 175.355 644 63Z" fill="#F8EDB8"/>
<path opacity="0.75" d="M440.006 79.1729C292.054 43.5551 149.634 38.8764 -72 169L-268.297 303.252C-271.091 451.305 -275.003 751.811 -268.297 769.417C-261.592 787.024 226.257 855.448 469.344 887.459C871.693 906.799 1715.79 938.677 1873.38 911.468C2070.36 877.456 2095.51 621.365 2101.79 611.361C2106.82 603.359 2018.67 301.252 1973.96 151.198L1781.17 31.1559C1678.31 19.437 1657.19 1.08867 1528 101C1463.56 117.663 1365.9 140.335 1227.94 69.1693C1119.45 18.8658 1039.26 38.4646 857.024 137.193C751.185 191.195 670.409 191.527 440.006 79.1729Z" fill="#CBE7F0"/>
</svg>
