<svg xmlns="http://www.w3.org/2000/svg" xmlns:xlink="http://www.w3.org/1999/xlink" width="559" zoomAndPan="magnify" viewBox="0 0 419.25 297.75" height="396" preserveAspectRatio="xMidYMid meet" version="1.0"><defs><clipPath id="e6a3122dea"><path d="M 344.875 13.402344 L 365.113281 13.402344 L 365.113281 33.640625 L 344.875 33.640625 Z M 344.875 13.402344 " clip-rule="nonzero"/></clipPath><clipPath id="4ff6c3bae8"><path d="M 3.84375 3.359375 L 74.996094 3.359375 L 74.996094 74.511719 L 3.84375 74.511719 Z M 3.84375 3.359375 " clip-rule="nonzero"/></clipPath><clipPath id="6311842f82"><path d="M 21.976562 21.460938 L 79.277344 21.460938 L 79.277344 78.757812 L 21.976562 78.757812 Z M 21.976562 21.460938 " clip-rule="nonzero"/></clipPath><clipPath id="542403cf16"><path d="M 3.84375 3.761719 L 13.585938 3.761719 L 13.585938 13.507812 L 3.84375 13.507812 Z M 3.84375 3.761719 " clip-rule="nonzero"/></clipPath><clipPath id="11b82ac3f8"><path d="M 206.414062 27.042969 L 213.160156 27.042969 L 213.160156 33.789062 L 206.414062 33.789062 Z M 206.414062 27.042969 " clip-rule="nonzero"/></clipPath><clipPath id="3b3bb89343"><path d="M 76.695312 246.300781 L 99.179688 246.300781 L 99.179688 268.789062 L 76.695312 268.789062 Z M 76.695312 246.300781 " clip-rule="nonzero"/></clipPath><clipPath id="1a88420d46"><path d="M 407.195312 262.128906 L 413.941406 262.128906 L 413.941406 268.875 L 407.195312 268.875 Z M 407.195312 262.128906 " clip-rule="nonzero"/></clipPath><clipPath id="7dab829f7f"><path d="M 232.585938 248.835938 L 239.332031 248.835938 L 239.332031 255.582031 L 232.585938 255.582031 Z M 232.585938 248.835938 " clip-rule="nonzero"/></clipPath></defs><g clip-path="url(#e6a3122dea)"><path fill="#c68439" d="M 365.113281 23.519531 C 365.113281 24.183594 365.050781 24.84375 364.917969 25.496094 C 364.789062 26.148438 364.597656 26.78125 364.34375 27.394531 C 364.089844 28.007812 363.777344 28.589844 363.410156 29.144531 C 363.039062 29.695312 362.621094 30.207031 362.152344 30.675781 C 361.679688 31.144531 361.167969 31.566406 360.617188 31.933594 C 360.066406 32.304688 359.480469 32.617188 358.867188 32.871094 C 358.253906 33.125 357.621094 33.316406 356.96875 33.445312 C 356.316406 33.574219 355.660156 33.640625 354.996094 33.640625 C 354.332031 33.640625 353.671875 33.574219 353.019531 33.445312 C 352.371094 33.316406 351.738281 33.125 351.125 32.871094 C 350.507812 32.617188 349.925781 32.304688 349.375 31.933594 C 348.820312 31.566406 348.308594 31.144531 347.839844 30.675781 C 347.371094 30.207031 346.949219 29.695312 346.582031 29.144531 C 346.210938 28.589844 345.902344 28.007812 345.648438 27.394531 C 345.390625 26.78125 345.199219 26.148438 345.070312 25.496094 C 344.941406 24.84375 344.875 24.183594 344.875 23.519531 C 344.875 22.855469 344.941406 22.199219 345.070312 21.546875 C 345.199219 20.894531 345.390625 20.261719 345.648438 19.648438 C 345.902344 19.035156 346.210938 18.453125 346.582031 17.898438 C 346.949219 17.347656 347.371094 16.835938 347.839844 16.367188 C 348.308594 15.894531 348.820312 15.476562 349.375 15.109375 C 349.925781 14.738281 350.507812 14.425781 351.125 14.171875 C 351.738281 13.917969 352.371094 13.726562 353.019531 13.597656 C 353.671875 13.46875 354.332031 13.402344 354.996094 13.402344 C 355.660156 13.402344 356.316406 13.46875 356.96875 13.597656 C 357.621094 13.726562 358.253906 13.917969 358.867188 14.171875 C 359.480469 14.425781 360.066406 14.738281 360.617188 15.109375 C 361.167969 15.476562 361.679688 15.894531 362.152344 16.367188 C 362.621094 16.835938 363.039062 17.347656 363.410156 17.898438 C 363.777344 18.453125 364.089844 19.035156 364.34375 19.648438 C 364.597656 20.261719 364.789062 20.894531 364.917969 21.546875 C 365.050781 22.199219 365.113281 22.855469 365.113281 23.519531 Z M 365.113281 23.519531 " fill-opacity="1" fill-rule="nonzero"/></g><g clip-path="url(#4ff6c3bae8)"><path fill="#0c3b44" d="M 74.996094 38.9375 C 74.996094 40.101562 74.9375 41.265625 74.824219 42.425781 C 74.710938 43.582031 74.539062 44.734375 74.3125 45.878906 C 74.085938 47.019531 73.800781 48.148438 73.464844 49.265625 C 73.125 50.378906 72.734375 51.476562 72.289062 52.550781 C 71.84375 53.628906 71.34375 54.679688 70.796875 55.707031 C 70.246094 56.734375 69.648438 57.734375 69 58.703125 C 68.351562 59.671875 67.660156 60.605469 66.921875 61.507812 C 66.179688 62.40625 65.398438 63.269531 64.574219 64.09375 C 63.753906 64.917969 62.890625 65.699219 61.988281 66.4375 C 61.089844 67.175781 60.152344 67.871094 59.183594 68.519531 C 58.214844 69.164062 57.21875 69.761719 56.191406 70.3125 C 55.164062 70.863281 54.109375 71.359375 53.035156 71.804688 C 51.957031 72.25 50.863281 72.644531 49.746094 72.980469 C 48.632812 73.320312 47.503906 73.601562 46.359375 73.828125 C 45.21875 74.058594 44.066406 74.226562 42.90625 74.34375 C 41.746094 74.457031 40.585938 74.511719 39.417969 74.511719 C 38.253906 74.511719 37.09375 74.457031 35.933594 74.34375 C 34.773438 74.226562 33.621094 74.058594 32.480469 73.828125 C 31.335938 73.601562 30.207031 73.320312 29.09375 72.980469 C 27.976562 72.644531 26.882812 72.25 25.804688 71.804688 C 24.730469 71.359375 23.675781 70.863281 22.648438 70.3125 C 21.621094 69.761719 20.625 69.164062 19.65625 68.519531 C 18.6875 67.871094 17.75 67.175781 16.851562 66.4375 C 15.949219 65.699219 15.085938 64.917969 14.261719 64.09375 C 13.441406 63.269531 12.65625 62.40625 11.917969 61.507812 C 11.179688 60.605469 10.488281 59.671875 9.839844 58.703125 C 9.191406 57.734375 8.59375 56.734375 8.042969 55.707031 C 7.496094 54.679688 6.996094 53.628906 6.550781 52.550781 C 6.105469 51.476562 5.714844 50.378906 5.375 49.265625 C 5.039062 48.148438 4.753906 47.019531 4.527344 45.878906 C 4.300781 44.734375 4.128906 43.582031 4.015625 42.425781 C 3.902344 41.265625 3.84375 40.101562 3.84375 38.9375 C 3.84375 37.773438 3.902344 36.609375 4.015625 35.449219 C 4.128906 34.289062 4.300781 33.140625 4.527344 31.996094 C 4.753906 30.855469 5.039062 29.726562 5.375 28.609375 C 5.714844 27.496094 6.105469 26.398438 6.550781 25.324219 C 6.996094 24.246094 7.496094 23.195312 8.042969 22.167969 C 8.59375 21.140625 9.191406 20.140625 9.839844 19.171875 C 10.488281 18.203125 11.179688 17.269531 11.917969 16.367188 C 12.65625 15.46875 13.441406 14.605469 14.261719 13.78125 C 15.085938 12.957031 15.949219 12.175781 16.851562 11.4375 C 17.75 10.695312 18.6875 10.003906 19.65625 9.355469 C 20.625 8.710938 21.621094 8.109375 22.648438 7.5625 C 23.675781 7.011719 24.730469 6.515625 25.804688 6.070312 C 26.882812 5.621094 27.976562 5.230469 29.09375 4.894531 C 30.207031 4.554688 31.335938 4.273438 32.480469 4.042969 C 33.621094 3.816406 34.773438 3.644531 35.933594 3.53125 C 37.09375 3.417969 38.253906 3.359375 39.417969 3.359375 C 40.585938 3.359375 41.746094 3.417969 42.90625 3.53125 C 44.066406 3.644531 45.21875 3.816406 46.359375 4.042969 C 47.503906 4.273438 48.632812 4.554688 49.746094 4.894531 C 50.863281 5.230469 51.957031 5.621094 53.035156 6.070312 C 54.109375 6.515625 55.164062 7.011719 56.191406 7.5625 C 57.21875 8.109375 58.214844 8.710938 59.183594 9.355469 C 60.152344 10.003906 61.089844 10.695312 61.988281 11.4375 C 62.890625 12.175781 63.753906 12.957031 64.574219 13.78125 C 65.398438 14.605469 66.179688 15.46875 66.921875 16.367188 C 67.660156 17.269531 68.351562 18.203125 69 19.171875 C 69.648438 20.140625 70.246094 21.140625 70.796875 22.167969 C 71.34375 23.195312 71.84375 24.246094 72.289062 25.324219 C 72.734375 26.398438 73.125 27.496094 73.464844 28.609375 C 73.800781 29.726562 74.085938 30.855469 74.3125 31.996094 C 74.539062 33.140625 74.710938 34.289062 74.824219 35.449219 C 74.9375 36.609375 74.996094 37.773438 74.996094 38.9375 Z M 74.996094 38.9375 " fill-opacity="1" fill-rule="nonzero"/></g><g clip-path="url(#6311842f82)"><path fill="#80b6b0" d="M 79.277344 50.109375 C 79.277344 51.046875 79.234375 51.984375 79.140625 52.917969 C 79.046875 53.851562 78.910156 54.777344 78.726562 55.699219 C 78.542969 56.621094 78.316406 57.527344 78.042969 58.425781 C 77.773438 59.324219 77.457031 60.207031 77.097656 61.074219 C 76.738281 61.941406 76.335938 62.789062 75.894531 63.613281 C 75.453125 64.441406 74.972656 65.246094 74.449219 66.027344 C 73.929688 66.808594 73.371094 67.558594 72.773438 68.285156 C 72.179688 69.011719 71.550781 69.703125 70.886719 70.367188 C 70.222656 71.03125 69.527344 71.660156 68.804688 72.257812 C 68.078125 72.851562 67.324219 73.410156 66.546875 73.929688 C 65.765625 74.453125 64.960938 74.933594 64.132812 75.375 C 63.304688 75.820312 62.460938 76.21875 61.59375 76.578125 C 60.726562 76.9375 59.84375 77.253906 58.945312 77.527344 C 58.046875 77.796875 57.136719 78.027344 56.21875 78.210938 C 55.296875 78.390625 54.371094 78.53125 53.4375 78.621094 C 52.503906 78.714844 51.566406 78.757812 50.628906 78.757812 C 49.691406 78.757812 48.753906 78.714844 47.820312 78.621094 C 46.886719 78.53125 45.960938 78.390625 45.039062 78.210938 C 44.117188 78.027344 43.210938 77.796875 42.3125 77.527344 C 41.414062 77.253906 40.53125 76.9375 39.664062 76.578125 C 38.796875 76.21875 37.949219 75.820312 37.121094 75.375 C 36.296875 74.933594 35.492188 74.453125 34.710938 73.929688 C 33.929688 73.410156 33.179688 72.851562 32.453125 72.257812 C 31.726562 71.660156 31.035156 71.03125 30.371094 70.367188 C 29.707031 69.703125 29.078125 69.011719 28.480469 68.285156 C 27.886719 67.558594 27.328125 66.808594 26.808594 66.027344 C 26.285156 65.246094 25.804688 64.441406 25.363281 63.613281 C 24.917969 62.789062 24.519531 61.941406 24.160156 61.074219 C 23.800781 60.207031 23.484375 59.324219 23.210938 58.425781 C 22.941406 57.527344 22.710938 56.621094 22.527344 55.699219 C 22.347656 54.777344 22.207031 53.851562 22.117188 52.917969 C 22.023438 51.984375 21.976562 51.046875 21.976562 50.109375 C 21.976562 49.171875 22.023438 48.234375 22.117188 47.300781 C 22.207031 46.367188 22.347656 45.441406 22.527344 44.519531 C 22.710938 43.601562 22.941406 42.691406 23.210938 41.792969 C 23.484375 40.894531 23.800781 40.011719 24.160156 39.144531 C 24.519531 38.277344 24.917969 37.429688 25.363281 36.605469 C 25.804688 35.777344 26.285156 34.972656 26.808594 34.191406 C 27.328125 33.414062 27.886719 32.660156 28.480469 31.933594 C 29.078125 31.207031 29.707031 30.515625 30.371094 29.851562 C 31.035156 29.1875 31.726562 28.558594 32.453125 27.960938 C 33.179688 27.367188 33.929688 26.808594 34.710938 26.289062 C 35.492188 25.765625 36.296875 25.285156 37.121094 24.84375 C 37.949219 24.398438 38.796875 24 39.664062 23.640625 C 40.53125 23.28125 41.414062 22.964844 42.3125 22.691406 C 43.210938 22.421875 44.117188 22.191406 45.039062 22.011719 C 45.960938 21.828125 46.886719 21.691406 47.820312 21.597656 C 48.753906 21.503906 49.691406 21.460938 50.628906 21.460938 C 51.566406 21.460938 52.503906 21.503906 53.4375 21.597656 C 54.371094 21.691406 55.296875 21.828125 56.21875 22.011719 C 57.136719 22.191406 58.046875 22.421875 58.945312 22.691406 C 59.84375 22.964844 60.726562 23.28125 61.59375 23.640625 C 62.460938 24 63.304688 24.398438 64.132812 24.84375 C 64.960938 25.285156 65.765625 25.765625 66.546875 26.289062 C 67.324219 26.808594 68.078125 27.367188 68.804688 27.960938 C 69.527344 28.558594 70.222656 29.1875 70.886719 29.851562 C 71.550781 30.515625 72.179688 31.207031 72.773438 31.933594 C 73.371094 32.660156 73.929688 33.414062 74.449219 34.191406 C 74.972656 34.972656 75.453125 35.777344 75.894531 36.605469 C 76.335938 37.429688 76.738281 38.277344 77.097656 39.144531 C 77.457031 40.011719 77.773438 40.894531 78.042969 41.792969 C 78.316406 42.691406 78.542969 43.601562 78.726562 44.519531 C 78.910156 45.441406 79.046875 46.367188 79.140625 47.300781 C 79.234375 48.234375 79.277344 49.171875 79.277344 50.109375 Z M 79.277344 50.109375 " fill-opacity="1" fill-rule="nonzero"/></g><g clip-path="url(#542403cf16)"><path fill="#ca8e48" d="M 13.585938 8.636719 C 13.585938 8.953125 13.554688 9.273438 13.492188 9.585938 C 13.429688 9.898438 13.339844 10.203125 13.214844 10.5 C 13.09375 10.792969 12.945312 11.074219 12.765625 11.339844 C 12.589844 11.609375 12.386719 11.855469 12.160156 12.078125 C 11.933594 12.304688 11.6875 12.507812 11.421875 12.6875 C 11.15625 12.863281 10.875 13.011719 10.578125 13.136719 C 10.285156 13.257812 9.980469 13.351562 9.667969 13.414062 C 9.351562 13.476562 9.035156 13.507812 8.714844 13.507812 C 8.394531 13.507812 8.078125 13.476562 7.765625 13.414062 C 7.453125 13.351562 7.148438 13.257812 6.851562 13.136719 C 6.554688 13.011719 6.273438 12.863281 6.007812 12.6875 C 5.742188 12.507812 5.496094 12.304688 5.269531 12.078125 C 5.042969 11.855469 4.84375 11.609375 4.664062 11.339844 C 4.488281 11.074219 4.335938 10.792969 4.214844 10.5 C 4.09375 10.203125 4 9.898438 3.9375 9.585938 C 3.875 9.273438 3.84375 8.953125 3.84375 8.636719 C 3.84375 8.316406 3.875 8 3.9375 7.683594 C 4 7.371094 4.09375 7.066406 4.214844 6.769531 C 4.335938 6.476562 4.488281 6.195312 4.664062 5.929688 C 4.84375 5.660156 5.042969 5.414062 5.269531 5.191406 C 5.496094 4.964844 5.742188 4.761719 6.007812 4.582031 C 6.273438 4.40625 6.554688 4.257812 6.851562 4.132812 C 7.148438 4.011719 7.453125 3.917969 7.765625 3.855469 C 8.078125 3.792969 8.394531 3.761719 8.714844 3.761719 C 9.035156 3.761719 9.351562 3.792969 9.667969 3.855469 C 9.980469 3.917969 10.285156 4.011719 10.578125 4.132812 C 10.875 4.257812 11.15625 4.40625 11.421875 4.582031 C 11.6875 4.761719 11.933594 4.964844 12.160156 5.191406 C 12.386719 5.414062 12.589844 5.660156 12.765625 5.929688 C 12.945312 6.195312 13.09375 6.476562 13.214844 6.769531 C 13.339844 7.066406 13.429688 7.371094 13.492188 7.683594 C 13.554688 8 13.585938 8.316406 13.585938 8.636719 Z M 13.585938 8.636719 " fill-opacity="1" fill-rule="nonzero"/></g><g clip-path="url(#11b82ac3f8)"><path fill="#c68439" d="M 213.160156 30.414062 C 213.160156 30.863281 213.078125 31.292969 212.90625 31.703125 C 212.734375 32.117188 212.488281 32.484375 212.175781 32.800781 C 211.859375 33.117188 211.492188 33.359375 211.078125 33.53125 C 210.667969 33.703125 210.234375 33.789062 209.789062 33.789062 C 209.339844 33.789062 208.910156 33.703125 208.496094 33.53125 C 208.085938 33.359375 207.71875 33.117188 207.402344 32.800781 C 207.085938 32.484375 206.84375 32.117188 206.671875 31.703125 C 206.5 31.292969 206.414062 30.863281 206.414062 30.414062 C 206.414062 29.96875 206.5 29.535156 206.671875 29.125 C 206.84375 28.710938 207.085938 28.34375 207.402344 28.027344 C 207.71875 27.714844 208.085938 27.46875 208.496094 27.296875 C 208.910156 27.125 209.339844 27.042969 209.789062 27.042969 C 210.234375 27.042969 210.667969 27.125 211.078125 27.296875 C 211.492188 27.46875 211.859375 27.714844 212.175781 28.027344 C 212.488281 28.34375 212.734375 28.710938 212.90625 29.125 C 213.078125 29.535156 213.160156 29.96875 213.160156 30.414062 Z M 213.160156 30.414062 " fill-opacity="1" fill-rule="nonzero"/></g><g clip-path="url(#3b3bb89343)"><path fill="#c68439" d="M 99.179688 257.546875 C 99.179688 258.285156 99.109375 259.015625 98.964844 259.738281 C 98.820312 260.464844 98.609375 261.164062 98.324219 261.847656 C 98.042969 262.53125 97.695312 263.179688 97.285156 263.792969 C 96.875 264.40625 96.410156 264.972656 95.886719 265.496094 C 95.367188 266.019531 94.796875 266.484375 94.183594 266.894531 C 93.570312 267.304688 92.921875 267.648438 92.242188 267.933594 C 91.558594 268.214844 90.855469 268.429688 90.132812 268.574219 C 89.40625 268.714844 88.675781 268.789062 87.9375 268.789062 C 87.199219 268.789062 86.46875 268.714844 85.746094 268.574219 C 85.019531 268.429688 84.316406 268.214844 83.636719 267.933594 C 82.953125 267.648438 82.304688 267.304688 81.691406 266.894531 C 81.078125 266.484375 80.511719 266.019531 79.988281 265.496094 C 79.464844 264.972656 79 264.40625 78.589844 263.792969 C 78.179688 263.179688 77.832031 262.53125 77.550781 261.847656 C 77.269531 261.164062 77.054688 260.464844 76.910156 259.738281 C 76.765625 259.015625 76.695312 258.285156 76.695312 257.546875 C 76.695312 256.808594 76.765625 256.074219 76.910156 255.351562 C 77.054688 254.628906 77.269531 253.925781 77.550781 253.242188 C 77.832031 252.5625 78.179688 251.914062 78.589844 251.300781 C 79 250.683594 79.464844 250.117188 79.988281 249.59375 C 80.511719 249.074219 81.078125 248.605469 81.691406 248.195312 C 82.304688 247.785156 82.953125 247.441406 83.636719 247.15625 C 84.316406 246.875 85.019531 246.664062 85.746094 246.519531 C 86.46875 246.375 87.199219 246.300781 87.9375 246.300781 C 88.675781 246.300781 89.40625 246.375 90.132812 246.519531 C 90.855469 246.664062 91.558594 246.875 92.242188 247.15625 C 92.921875 247.441406 93.570312 247.785156 94.183594 248.195312 C 94.796875 248.605469 95.367188 249.074219 95.886719 249.59375 C 96.410156 250.117188 96.875 250.683594 97.285156 251.300781 C 97.695312 251.914062 98.042969 252.5625 98.324219 253.242188 C 98.609375 253.925781 98.820312 254.628906 98.964844 255.351562 C 99.109375 256.074219 99.179688 256.808594 99.179688 257.546875 Z M 99.179688 257.546875 " fill-opacity="1" fill-rule="nonzero"/></g><g clip-path="url(#1a88420d46)"><path fill="#c68439" d="M 413.941406 265.503906 C 413.941406 265.949219 413.855469 266.378906 413.683594 266.792969 C 413.511719 267.207031 413.269531 267.570312 412.953125 267.886719 C 412.636719 268.203125 412.269531 268.449219 411.859375 268.621094 C 411.445312 268.789062 411.015625 268.875 410.566406 268.875 C 410.121094 268.875 409.6875 268.789062 409.277344 268.621094 C 408.863281 268.449219 408.496094 268.203125 408.183594 267.886719 C 407.867188 267.570312 407.621094 267.207031 407.449219 266.792969 C 407.28125 266.378906 407.195312 265.949219 407.195312 265.503906 C 407.195312 265.054688 407.28125 264.625 407.449219 264.210938 C 407.621094 263.800781 407.867188 263.433594 408.183594 263.117188 C 408.496094 262.800781 408.863281 262.558594 409.277344 262.386719 C 409.6875 262.214844 410.121094 262.128906 410.566406 262.128906 C 411.015625 262.128906 411.445312 262.214844 411.859375 262.386719 C 412.269531 262.558594 412.636719 262.800781 412.953125 263.117188 C 413.269531 263.433594 413.511719 263.800781 413.683594 264.210938 C 413.855469 264.625 413.941406 265.054688 413.941406 265.503906 Z M 413.941406 265.503906 " fill-opacity="1" fill-rule="nonzero"/></g><g clip-path="url(#7dab829f7f)"><path fill="#c68439" d="M 239.332031 252.210938 C 239.332031 252.65625 239.246094 253.089844 239.074219 253.5 C 238.902344 253.914062 238.660156 254.28125 238.34375 254.597656 C 238.027344 254.910156 237.660156 255.15625 237.25 255.328125 C 236.835938 255.5 236.40625 255.582031 235.957031 255.582031 C 235.511719 255.582031 235.078125 255.5 234.667969 255.328125 C 234.253906 255.15625 233.890625 254.910156 233.574219 254.597656 C 233.257812 254.28125 233.011719 253.914062 232.839844 253.5 C 232.671875 253.089844 232.585938 252.65625 232.585938 252.210938 C 232.585938 251.761719 232.671875 251.332031 232.839844 250.921875 C 233.011719 250.507812 233.257812 250.140625 233.574219 249.824219 C 233.890625 249.507812 234.253906 249.265625 234.667969 249.09375 C 235.078125 248.921875 235.511719 248.835938 235.957031 248.835938 C 236.40625 248.835938 236.835938 248.921875 237.25 249.09375 C 237.660156 249.265625 238.027344 249.507812 238.34375 249.824219 C 238.660156 250.140625 238.902344 250.507812 239.074219 250.921875 C 239.246094 251.332031 239.332031 251.761719 239.332031 252.210938 Z M 239.332031 252.210938 " fill-opacity="1" fill-rule="nonzero"/></g></svg>